<?xml version="1.0" encoding="UTF-8" standalone="no"?>
<!DOCTYPE svg PUBLIC "-//W3C//DTD SVG 1.1//EN"
 "http://www.w3.org/Graphics/SVG/1.1/DTD/svg11.dtd">
<!-- Generated by graphviz version 14.1.5 (0)
 -->
<!-- Title: dependency&#45;cruiser output Pages: 1 -->
<svg width="872pt" height="1906pt"
 viewBox="0.00 0.00 872.00 1906.00" xmlns="http://www.w3.org/2000/svg" xmlns:xlink="http://www.w3.org/1999/xlink">
<g id="graph0" class="graph" transform="scale(1 1) rotate(0) translate(4 1902)">
<title>dependency&#45;cruiser output</title>
<polygon fill="white" stroke="none" points="-4,4 -4,-1902 867.5,-1902 867.5,4 -4,4"/>
<g id="clust1" class="cluster">
<title>cluster_src</title>
<path fill="#ffffff" stroke="black" stroke-width="2" d="M20,-8C20,-8 843.5,-8 843.5,-8 849.5,-8 855.5,-14 855.5,-20 855.5,-20 855.5,-1878 855.5,-1878 855.5,-1884 849.5,-1890 843.5,-1890 843.5,-1890 20,-1890 20,-1890 14,-1890 8,-1884 8,-1878 8,-1878 8,-20 8,-20 8,-14 14,-8 20,-8"/>
<text xml:space="preserve" text-anchor="middle" x="431.75" y="-1877.45" font-family="Helvetica,sans-Serif" font-weight="bold" font-size="9.00">src</text>
</g>
<g id="clust2" class="cluster">
<title>cluster_src/adapters</title>
<path fill="#ffffff" stroke="black" stroke-width="2" d="M317,-528C317,-528 639.12,-528 639.12,-528 645.12,-528 651.12,-534 651.12,-540 651.12,-540 651.12,-1056 651.12,-1056 651.12,-1062 645.12,-1068 639.12,-1068 639.12,-1068 317,-1068 317,-1068 311,-1068 305,-1062 305,-1056 305,-1056 305,-540 305,-540 305,-534 311,-528 317,-528"/>
<text xml:space="preserve" text-anchor="middle" x="478.06" y="-1055.45" font-family="Helvetica,sans-Serif" font-weight="bold" font-size="9.00">adapters</text>
</g>
<g id="clust3" class="cluster">
<title>cluster_src/adapters/codex</title>
<path fill="#ffffff" stroke="black" stroke-width="2" d="M331.75,-536C331.75,-536 631.12,-536 631.12,-536 637.12,-536 643.12,-542 643.12,-548 643.12,-548 643.12,-741 643.12,-741 643.12,-747 637.12,-753 631.12,-753 631.12,-753 331.75,-753 331.75,-753 325.75,-753 319.75,-747 319.75,-741 319.75,-741 319.75,-548 319.75,-548 319.75,-542 325.75,-536 331.75,-536"/>
<text xml:space="preserve" text-anchor="middle" x="481.44" y="-740.45" font-family="Helvetica,sans-Serif" font-weight="bold" font-size="9.00">codex</text>
</g>
<g id="clust4" class="cluster">
<title>cluster_src/adapters/codex/auth</title>
<path fill="#ffffff" stroke="black" stroke-width="2" d="M341.62,-639C341.62,-639 436.62,-639 436.62,-639 442.62,-639 448.62,-645 448.62,-651 448.62,-651 448.62,-714 448.62,-714 448.62,-720 442.62,-726 436.62,-726 436.62,-726 341.62,-726 341.62,-726 335.62,-726 329.62,-720 329.62,-714 329.62,-714 329.62,-651 329.62,-651 329.62,-645 335.62,-639 341.62,-639"/>
<text xml:space="preserve" text-anchor="middle" x="389.12" y="-713.45" font-family="Helvetica,sans-Serif" font-weight="bold" font-size="9.00">auth</text>
</g>
<g id="clust5" class="cluster">
<title>cluster_src/adapters/codex/responses</title>
<path fill="#ffffff" stroke="black" stroke-width="2" d="M339.75,-544C339.75,-544 623.12,-544 623.12,-544 629.12,-544 635.12,-550 635.12,-556 635.12,-556 635.12,-619 635.12,-619 635.12,-625 629.12,-631 623.12,-631 623.12,-631 339.75,-631 339.75,-631 333.75,-631 327.75,-625 327.75,-619 327.75,-619 327.75,-556 327.75,-556 327.75,-550 333.75,-544 339.75,-544"/>
<text xml:space="preserve" text-anchor="middle" x="481.44" y="-618.45" font-family="Helvetica,sans-Serif" font-weight="bold" font-size="9.00">responses</text>
</g>
<g id="clust6" class="cluster">
<title>cluster_src/adapters/file&#45;system</title>
<path fill="#ffffff" stroke="black" stroke-width="2" d="M327.75,-761C327.75,-761 450.5,-761 450.5,-761 456.5,-761 462.5,-767 462.5,-773 462.5,-773 462.5,-868 462.5,-868 462.5,-874 456.5,-880 450.5,-880 450.5,-880 327.75,-880 327.75,-880 321.75,-880 315.75,-874 315.75,-868 315.75,-868 315.75,-773 315.75,-773 315.75,-767 321.75,-761 327.75,-761"/>
<text xml:space="preserve" text-anchor="middle" x="389.12" y="-867.45" font-family="Helvetica,sans-Serif" font-weight="bold" font-size="9.00">file&#45;system</text>
</g>
<g id="clust7" class="cluster">
<title>cluster_src/adapters/memory</title>
<path fill="#ffffff" stroke="black" stroke-width="2" d="M325,-888C325,-888 453.25,-888 453.25,-888 459.25,-888 465.25,-894 465.25,-900 465.25,-900 465.25,-966 465.25,-966 465.25,-972 459.25,-978 453.25,-978 453.25,-978 325,-978 325,-978 319,-978 313,-972 313,-966 313,-966 313,-900 313,-900 313,-894 319,-888 325,-888"/>
<text xml:space="preserve" text-anchor="middle" x="389.12" y="-965.45" font-family="Helvetica,sans-Serif" font-weight="bold" font-size="9.00">memory</text>
</g>
<g id="clust8" class="cluster">
<title>cluster_src/adapters/memory/simple&#45;linear</title>
<path fill="#ffffff" stroke="black" stroke-width="2" d="M333,-896C333,-896 445.25,-896 445.25,-896 451.25,-896 457.25,-902 457.25,-908 457.25,-908 457.25,-939 457.25,-939 457.25,-945 451.25,-951 445.25,-951 445.25,-951 333,-951 333,-951 327,-951 321,-945 321,-939 321,-939 321,-908 321,-908 321,-902 327,-896 333,-896"/>
<text xml:space="preserve" text-anchor="middle" x="389.12" y="-938.45" font-family="Helvetica,sans-Serif" font-weight="bold" font-size="9.00">simple&#45;linear</text>
</g>
<g id="clust9" class="cluster">
<title>cluster_src/adapters/tools</title>
<path fill="#ffffff" stroke="black" stroke-width="2" d="M360,-986C360,-986 418.25,-986 418.25,-986 424.25,-986 430.25,-992 430.25,-998 430.25,-998 430.25,-1029 430.25,-1029 430.25,-1035 424.25,-1041 418.25,-1041 418.25,-1041 360,-1041 360,-1041 354,-1041 348,-1035 348,-1029 348,-1029 348,-998 348,-998 348,-992 354,-986 360,-986"/>
<text xml:space="preserve" text-anchor="middle" x="389.12" y="-1028.45" font-family="Helvetica,sans-Serif" font-weight="bold" font-size="9.00">tools</text>
</g>
<g id="clust10" class="cluster">
<title>cluster_src/apps</title>
<path fill="#ffffff" stroke="black" stroke-width="2" d="M28,-16C28,-16 799.12,-16 799.12,-16 805.12,-16 811.12,-22 811.12,-28 811.12,-28 811.12,-508 811.12,-508 811.12,-514 805.12,-520 799.12,-520 799.12,-520 28,-520 28,-520 22,-520 16,-514 16,-508 16,-508 16,-28 16,-28 16,-22 22,-16 28,-16"/>
<text xml:space="preserve" text-anchor="middle" x="413.56" y="-507.45" font-family="Helvetica,sans-Serif" font-weight="bold" font-size="9.00">apps</text>
</g>
<g id="clust11" class="cluster">
<title>cluster_src/apps/cli</title>
<path fill="#ffffff" stroke="black" stroke-width="2" d="M36,-278C36,-278 449.75,-278 449.75,-278 455.75,-278 461.75,-284 461.75,-290 461.75,-290 461.75,-481 461.75,-481 461.75,-487 455.75,-493 449.75,-493 449.75,-493 36,-493 36,-493 30,-493 24,-487 24,-481 24,-481 24,-290 24,-290 24,-284 30,-278 36,-278"/>
<text xml:space="preserve" text-anchor="middle" x="242.88" y="-480.45" font-family="Helvetica,sans-Serif" font-weight="bold" font-size="9.00">cli</text>
</g>
<g id="clust12" class="cluster">
<title>cluster_src/apps/web</title>
<path fill="#ffffff" stroke="black" stroke-width="2" d="M67.88,-24C67.88,-24 791.12,-24 791.12,-24 797.12,-24 803.12,-30 803.12,-36 803.12,-36 803.12,-258 803.12,-258 803.12,-264 797.12,-270 791.12,-270 791.12,-270 67.88,-270 67.88,-270 61.88,-270 55.88,-264 55.88,-258 55.88,-258 55.88,-36 55.88,-36 55.88,-30 61.88,-24 67.88,-24"/>
<text xml:space="preserve" text-anchor="middle" x="429.5" y="-257.45" font-family="Helvetica,sans-Serif" font-weight="bold" font-size="9.00">web</text>
</g>
<g id="clust13" class="cluster">
<title>cluster_src/apps/web/components</title>
<path fill="#ffffff" stroke="black" stroke-width="2" d="M337.5,-32C337.5,-32 629.5,-32 629.5,-32 635.5,-32 641.5,-38 641.5,-44 641.5,-44 641.5,-203 641.5,-203 641.5,-209 635.5,-215 629.5,-215 629.5,-215 337.5,-215 337.5,-215 331.5,-215 325.5,-209 325.5,-203 325.5,-203 325.5,-44 325.5,-44 325.5,-38 331.5,-32 337.5,-32"/>
<text xml:space="preserve" text-anchor="middle" x="483.5" y="-202.45" font-family="Helvetica,sans-Serif" font-weight="bold" font-size="9.00">components</text>
</g>
<g id="clust14" class="cluster">
<title>cluster_src/core</title>
<path fill="#ffffff" stroke="black" stroke-width="2" d="M485.25,-1076C485.25,-1076 835.5,-1076 835.5,-1076 841.5,-1076 847.5,-1082 847.5,-1088 847.5,-1088 847.5,-1851 847.5,-1851 847.5,-1857 841.5,-1863 835.5,-1863 835.5,-1863 485.25,-1863 485.25,-1863 479.25,-1863 473.25,-1857 473.25,-1851 473.25,-1851 473.25,-1088 473.25,-1088 473.25,-1082 479.25,-1076 485.25,-1076"/>
<text xml:space="preserve" text-anchor="middle" x="660.38" y="-1850.45" font-family="Helvetica,sans-Serif" font-weight="bold" font-size="9.00">core</text>
</g>
<g id="clust15" class="cluster">
<title>cluster_src/core/agent</title>
<path fill="#ffffff" stroke="black" stroke-width="2" d="M548,-1084C548,-1084 597.25,-1084 597.25,-1084 603.25,-1084 609.25,-1090 609.25,-1096 609.25,-1096 609.25,-1159 609.25,-1159 609.25,-1165 603.25,-1171 597.25,-1171 597.25,-1171 548,-1171 548,-1171 542,-1171 536,-1165 536,-1159 536,-1159 536,-1096 536,-1096 536,-1090 542,-1084 548,-1084"/>
<text xml:space="preserve" text-anchor="middle" x="572.62" y="-1158.45" font-family="Helvetica,sans-Serif" font-weight="bold" font-size="9.00">agent</text>
</g>
<g id="clust16" class="cluster">
<title>cluster_src/core/auth</title>
<path fill="#ffffff" stroke="black" stroke-width="2" d="M516.88,-1179C516.88,-1179 628.38,-1179 628.38,-1179 634.38,-1179 640.38,-1185 640.38,-1191 640.38,-1191 640.38,-1254 640.38,-1254 640.38,-1260 634.38,-1266 628.38,-1266 628.38,-1266 516.88,-1266 516.88,-1266 510.88,-1266 504.88,-1260 504.88,-1254 504.88,-1254 504.88,-1191 504.88,-1191 504.88,-1185 510.88,-1179 516.88,-1179"/>
<text xml:space="preserve" text-anchor="middle" x="572.62" y="-1253.45" font-family="Helvetica,sans-Serif" font-weight="bold" font-size="9.00">auth</text>
</g>
<g id="clust17" class="cluster">
<title>cluster_src/core/config</title>
<path fill="#ffffff" stroke="black" stroke-width="2" d="M501.5,-1274C501.5,-1274 643.75,-1274 643.75,-1274 649.75,-1274 655.75,-1280 655.75,-1286 655.75,-1286 655.75,-1349 655.75,-1349 655.75,-1355 649.75,-1361 643.75,-1361 643.75,-1361 501.5,-1361 501.5,-1361 495.5,-1361 489.5,-1355 489.5,-1349 489.5,-1349 489.5,-1286 489.5,-1286 489.5,-1280 495.5,-1274 501.5,-1274"/>
<text xml:space="preserve" text-anchor="middle" x="572.62" y="-1348.45" font-family="Helvetica,sans-Serif" font-weight="bold" font-size="9.00">config</text>
</g>
<g id="clust18" class="cluster">
<title>cluster_src/core/conversations</title>
<path fill="#ffffff" stroke="black" stroke-width="2" d="M493.25,-1369C493.25,-1369 827.5,-1369 827.5,-1369 833.5,-1369 839.5,-1375 839.5,-1381 839.5,-1381 839.5,-1508 839.5,-1508 839.5,-1514 833.5,-1520 827.5,-1520 827.5,-1520 493.25,-1520 493.25,-1520 487.25,-1520 481.25,-1514 481.25,-1508 481.25,-1508 481.25,-1381 481.25,-1381 481.25,-1375 487.25,-1369 493.25,-1369"/>
<text xml:space="preserve" text-anchor="middle" x="660.38" y="-1507.45" font-family="Helvetica,sans-Serif" font-weight="bold" font-size="9.00">conversations</text>
</g>
<g id="clust19" class="cluster">
<title>cluster_src/core/errors</title>
<path fill="#ffffff" stroke="black" stroke-width="2" d="M719.75,-1084C719.75,-1084 787.75,-1084 787.75,-1084 793.75,-1084 799.75,-1090 799.75,-1096 799.75,-1096 799.75,-1127 799.75,-1127 799.75,-1133 793.75,-1139 787.75,-1139 787.75,-1139 719.75,-1139 719.75,-1139 713.75,-1139 707.75,-1133 707.75,-1127 707.75,-1127 707.75,-1096 707.75,-1096 707.75,-1090 713.75,-1084 719.75,-1084"/>
<text xml:space="preserve" text-anchor="middle" x="753.75" y="-1126.45" font-family="Helvetica,sans-Serif" font-weight="bold" font-size="9.00">errors</text>
</g>
<g id="clust20" class="cluster">
<title>cluster_src/core/memory</title>
<path fill="#ffffff" stroke="black" stroke-width="2" d="M510.88,-1528C510.88,-1528 634.38,-1528 634.38,-1528 640.38,-1528 646.38,-1534 646.38,-1540 646.38,-1540 646.38,-1571 646.38,-1571 646.38,-1577 640.38,-1583 634.38,-1583 634.38,-1583 510.88,-1583 510.88,-1583 504.88,-1583 498.88,-1577 498.88,-1571 498.88,-1571 498.88,-1540 498.88,-1540 498.88,-1534 504.88,-1528 510.88,-1528"/>
<text xml:space="preserve" text-anchor="middle" x="572.62" y="-1570.45" font-family="Helvetica,sans-Serif" font-weight="bold" font-size="9.00">memory</text>
</g>
<g id="clust21" class="cluster">
<title>cluster_src/core/model</title>
<path fill="#ffffff" stroke="black" stroke-width="2" d="M515.75,-1591C515.75,-1591 629.5,-1591 629.5,-1591 635.5,-1591 641.5,-1597 641.5,-1603 641.5,-1603 641.5,-1634 641.5,-1634 641.5,-1640 635.5,-1646 629.5,-1646 629.5,-1646 515.75,-1646 515.75,-1646 509.75,-1646 503.75,-1640 503.75,-1634 503.75,-1634 503.75,-1603 503.75,-1603 503.75,-1597 509.75,-1591 515.75,-1591"/>
<text xml:space="preserve" text-anchor="middle" x="572.62" y="-1633.45" font-family="Helvetica,sans-Serif" font-weight="bold" font-size="9.00">model</text>
</g>
<g id="clust22" class="cluster">
<title>cluster_src/core/settings</title>
<path fill="#ffffff" stroke="black" stroke-width="2" d="M501.5,-1654C501.5,-1654 643.75,-1654 643.75,-1654 649.75,-1654 655.75,-1660 655.75,-1666 655.75,-1666 655.75,-1697 655.75,-1697 655.75,-1703 649.75,-1709 643.75,-1709 643.75,-1709 501.5,-1709 501.5,-1709 495.5,-1709 489.5,-1703 489.5,-1697 489.5,-1697 489.5,-1666 489.5,-1666 489.5,-1660 495.5,-1654 501.5,-1654"/>
<text xml:space="preserve" text-anchor="middle" x="572.62" y="-1696.45" font-family="Helvetica,sans-Serif" font-weight="bold" font-size="9.00">settings</text>
</g>
<g id="clust23" class="cluster">
<title>cluster_src/core/tools</title>
<path fill="#ffffff" stroke="black" stroke-width="2" d="M514.25,-1717C514.25,-1717 631,-1717 631,-1717 637,-1717 643,-1723 643,-1729 643,-1729 643,-1824 643,-1824 643,-1830 637,-1836 631,-1836 631,-1836 514.25,-1836 514.25,-1836 508.25,-1836 502.25,-1830 502.25,-1824 502.25,-1824 502.25,-1729 502.25,-1729 502.25,-1723 508.25,-1717 514.25,-1717"/>
<text xml:space="preserve" text-anchor="middle" x="572.62" y="-1823.45" font-family="Helvetica,sans-Serif" font-weight="bold" font-size="9.00">tools</text>
</g>
<!-- src/adapters/codex/auth/CodexAuthClient.ts -->
<g id="node1" class="node">
<title>src/adapters/codex/auth/CodexAuthClient.ts</title>
<g id="a_node1"><a xlink:href="src/adapters/codex/auth/CodexAuthClient.ts" xlink:title="CodexAuthClient.ts">
<path fill="#ddfeff" stroke="black" d="M433.83,-666.62C433.83,-666.62 344.42,-666.62 344.42,-666.62 341.21,-666.62 338,-663.42 338,-660.21 338,-660.21 338,-653.79 338,-653.79 338,-650.58 341.21,-647.38 344.42,-647.38 344.42,-647.38 433.83,-647.38 433.83,-647.38 437.04,-647.38 440.25,-650.58 440.25,-653.79 440.25,-653.79 440.25,-660.21 440.25,-660.21 440.25,-663.42 437.04,-666.62 433.83,-666.62"/>
<text xml:space="preserve" text-anchor="start" x="346" y="-653.62" font-family="Helvetica,sans-Serif" font-size="9.00">CodexAuthClient.ts</text>
</a>
</g>
</g>
<!-- src/core/errors/AgentError.ts -->
<g id="node2" class="node">
<title>src/core/errors/AgentError.ts</title>
<g id="a_node2"><a xlink:href="src/core/errors/AgentError.ts" xlink:title="AgentError.ts">
<path fill="#ddfeff" stroke="black" d="M785.33,-1111.62C785.33,-1111.62 722.17,-1111.62 722.17,-1111.62 718.96,-1111.62 715.75,-1108.42 715.75,-1105.21 715.75,-1105.21 715.75,-1098.79 715.75,-1098.79 715.75,-1095.58 718.96,-1092.38 722.17,-1092.38 722.17,-1092.38 785.33,-1092.38 785.33,-1092.38 788.54,-1092.38 791.75,-1095.58 791.75,-1098.79 791.75,-1098.79 791.75,-1105.21 791.75,-1105.21 791.75,-1108.42 788.54,-1111.62 785.33,-1111.62"/>
<text xml:space="preserve" text-anchor="start" x="723.75" y="-1098.62" font-family="Helvetica,sans-Serif" font-size="9.00">AgentError.ts</text>
</a>
</g>
</g>
<!-- src/adapters/codex/auth/CodexAuthClient.ts&#45;&gt;src/core/errors/AgentError.ts -->
<g id="edge1" class="edge">
<title>src/adapters/codex/auth/CodexAuthClient.ts&#45;&gt;src/core/errors/AgentError.ts</title>
<path fill="none" stroke="#000000" stroke-width="2" stroke-opacity="0.200000" d="M440.41,-657C543.59,-657 766.5,-657 766.5,-657 766.5,-657 766.5,-1083.26 766.5,-1083.26"/>
<polygon fill="#000000" fill-opacity="0.200000" stroke="#000000" stroke-width="2" stroke-opacity="0.200000" points="764.4,-1083.26 766.5,-1089.26 768.6,-1083.26 764.4,-1083.26"/>
</g>
<!-- src/adapters/codex/auth/CodexOAuthFlow.ts -->
<g id="node3" class="node">
<title>src/adapters/codex/auth/CodexOAuthFlow.ts</title>
<g id="a_node3"><a xlink:href="src/adapters/codex/auth/CodexOAuthFlow.ts" xlink:title="CodexOAuthFlow.ts">
<path fill="#ddfeff" stroke="black" d="M434.21,-698.62C434.21,-698.62 344.04,-698.62 344.04,-698.62 340.83,-698.62 337.62,-695.42 337.62,-692.21 337.62,-692.21 337.62,-685.79 337.62,-685.79 337.62,-682.58 340.83,-679.38 344.04,-679.38 344.04,-679.38 434.21,-679.38 434.21,-679.38 437.42,-679.38 440.62,-682.58 440.62,-685.79 440.62,-685.79 440.62,-692.21 440.62,-692.21 440.62,-695.42 437.42,-698.62 434.21,-698.62"/>
<text xml:space="preserve" text-anchor="start" x="345.62" y="-685.62" font-family="Helvetica,sans-Serif" font-size="9.00">CodexOAuthFlow.ts</text>
</a>
</g>
</g>
<!-- src/adapters/codex/responses/CodexModelClient.ts -->
<g id="node4" class="node">
<title>src/adapters/codex/responses/CodexModelClient.ts</title>
<g id="a_node4"><a xlink:href="src/adapters/codex/responses/CodexModelClient.ts" xlink:title="CodexModelClient.ts">
<path fill="#ddfeff" stroke="black" d="M436.08,-571.62C436.08,-571.62 342.17,-571.62 342.17,-571.62 338.96,-571.62 335.75,-568.42 335.75,-565.21 335.75,-565.21 335.75,-558.79 335.75,-558.79 335.75,-555.58 338.96,-552.38 342.17,-552.38 342.17,-552.38 436.08,-552.38 436.08,-552.38 439.29,-552.38 442.5,-555.58 442.5,-558.79 442.5,-558.79 442.5,-565.21 442.5,-565.21 442.5,-568.42 439.29,-571.62 436.08,-571.62"/>
<text xml:space="preserve" text-anchor="start" x="343.75" y="-558.62" font-family="Helvetica,sans-Serif" font-size="9.00">CodexModelClient.ts</text>
</a>
</g>
</g>
<!-- src/adapters/codex/responses/CodexModelClient.ts&#45;&gt;src/core/errors/AgentError.ts -->
<g id="edge2" class="edge">
<title>src/adapters/codex/responses/CodexModelClient.ts&#45;&gt;src/core/errors/AgentError.ts</title>
<path fill="none" stroke="#000000" stroke-width="2" stroke-opacity="0.200000" d="M372.5,-571.92C372.5,-589.78 372.5,-625.5 372.5,-625.5 372.5,-625.5 779.5,-625.5 779.5,-625.5 779.5,-625.5 779.5,-1083.02 779.5,-1083.02"/>
<polygon fill="#000000" fill-opacity="0.200000" stroke="#000000" stroke-width="2" stroke-opacity="0.200000" points="777.4,-1083.02 779.5,-1089.02 781.6,-1083.02 777.4,-1083.02"/>
</g>
<!-- src/adapters/codex/responses/responsesEvents.ts -->
<g id="node5" class="node">
<title>src/adapters/codex/responses/responsesEvents.ts</title>
<g id="a_node5"><a xlink:href="src/adapters/codex/responses/responsesEvents.ts" xlink:title="responsesEvents.ts">
<path fill="#ddfeff" stroke="black" d="M617.71,-571.62C617.71,-571.62 527.54,-571.62 527.54,-571.62 524.33,-571.62 521.12,-568.42 521.12,-565.21 521.12,-565.21 521.12,-558.79 521.12,-558.79 521.12,-555.58 524.33,-552.38 527.54,-552.38 527.54,-552.38 617.71,-552.38 617.71,-552.38 620.92,-552.38 624.12,-555.58 624.12,-558.79 624.12,-558.79 624.12,-565.21 624.12,-565.21 624.12,-568.42 620.92,-571.62 617.71,-571.62"/>
<text xml:space="preserve" text-anchor="start" x="529.12" y="-558.62" font-family="Helvetica,sans-Serif" font-size="9.00">responsesEvents.ts</text>
</a>
</g>
</g>
<!-- src/adapters/codex/responses/CodexModelClient.ts&#45;&gt;src/adapters/codex/responses/responsesEvents.ts -->
<g id="edge3" class="edge">
<title>src/adapters/codex/responses/CodexModelClient.ts&#45;&gt;src/adapters/codex/responses/responsesEvents.ts</title>
<path fill="none" stroke="#000000" stroke-width="2" stroke-opacity="0.200000" d="M442.69,-562C442.69,-562 511.86,-562 511.86,-562"/>
<polygon fill="#000000" fill-opacity="0.200000" stroke="#000000" stroke-width="2" stroke-opacity="0.200000" points="511.86,-564.1 517.86,-562 511.86,-559.9 511.86,-564.1"/>
</g>
<!-- src/adapters/codex/responses/responsesRequest.ts -->
<g id="node6" class="node">
<title>src/adapters/codex/responses/responsesRequest.ts</title>
<g id="a_node6"><a xlink:href="src/adapters/codex/responses/responsesRequest.ts" xlink:title="responsesRequest.ts">
<path fill="#ddfeff" stroke="black" d="M620.71,-603.62C620.71,-603.62 524.54,-603.62 524.54,-603.62 521.33,-603.62 518.12,-600.42 518.12,-597.21 518.12,-597.21 518.12,-590.79 518.12,-590.79 518.12,-587.58 521.33,-584.38 524.54,-584.38 524.54,-584.38 620.71,-584.38 620.71,-584.38 623.92,-584.38 627.12,-587.58 627.12,-590.79 627.12,-590.79 627.12,-597.21 627.12,-597.21 627.12,-600.42 623.92,-603.62 620.71,-603.62"/>
<text xml:space="preserve" text-anchor="start" x="526.12" y="-590.62" font-family="Helvetica,sans-Serif" font-size="9.00">responsesRequest.ts</text>
</a>
</g>
</g>
<!-- src/adapters/codex/responses/CodexModelClient.ts&#45;&gt;src/adapters/codex/responses/responsesRequest.ts -->
<g id="edge4" class="edge">
<title>src/adapters/codex/responses/CodexModelClient.ts&#45;&gt;src/adapters/codex/responses/responsesRequest.ts</title>
<path fill="none" stroke="#000000" stroke-width="2" stroke-opacity="0.200000" d="M406.5,-572.12C406.5,-581.5 406.5,-594 406.5,-594 406.5,-594 508.74,-594 508.74,-594"/>
<polygon fill="#000000" fill-opacity="0.200000" stroke="#000000" stroke-width="2" stroke-opacity="0.200000" points="508.74,-596.1 514.74,-594 508.74,-591.9 508.74,-596.1"/>
</g>
<!-- src/adapters/file&#45;system/JsonAgentConfigStore.ts -->
<g id="node7" class="node">
<title>src/adapters/file&#45;system/JsonAgentConfigStore.ts</title>
<g id="a_node7"><a xlink:href="src/adapters/file-system/JsonAgentConfigStore.ts" xlink:title="JsonAgentConfigStore.ts">
<path fill="#ddfeff" stroke="black" d="M445.83,-852.62C445.83,-852.62 332.42,-852.62 332.42,-852.62 329.21,-852.62 326,-849.42 326,-846.21 326,-846.21 326,-839.79 326,-839.79 326,-836.58 329.21,-833.38 332.42,-833.38 332.42,-833.38 445.83,-833.38 445.83,-833.38 449.04,-833.38 452.25,-836.58 452.25,-839.79 452.25,-839.79 452.25,-846.21 452.25,-846.21 452.25,-849.42 449.04,-852.62 445.83,-852.62"/>
<text xml:space="preserve" text-anchor="start" x="334" y="-839.62" font-family="Helvetica,sans-Serif" font-size="9.00">JsonAgentConfigStore.ts</text>
</a>
</g>
</g>
<!-- src/adapters/file&#45;system/JsonAgentConfigStore.ts&#45;&gt;src/core/errors/AgentError.ts -->
<g id="edge6" class="edge">
<title>src/adapters/file&#45;system/JsonAgentConfigStore.ts&#45;&gt;src/core/errors/AgentError.ts</title>
<path fill="none" stroke="#000000" stroke-width="2" stroke-opacity="0.200000" d="M452.56,-839.79C550.79,-839.79 728.5,-839.79 728.5,-839.79 728.5,-839.79 728.5,-1083.01 728.5,-1083.01"/>
<polygon fill="#000000" fill-opacity="0.200000" stroke="#000000" stroke-width="2" stroke-opacity="0.200000" points="726.4,-1083.01 728.5,-1089.01 730.6,-1083.01 726.4,-1083.01"/>
</g>
<!-- src/core/config/AgentConfig.schema.ts -->
<g id="node8" class="node">
<title>src/core/config/AgentConfig.schema.ts</title>
<g id="a_node8"><a xlink:href="src/core/config/AgentConfig.schema.ts" xlink:title="AgentConfig.schema.ts">
<path fill="#ddfeff" stroke="black" d="M627.08,-1301.62C627.08,-1301.62 518.17,-1301.62 518.17,-1301.62 514.96,-1301.62 511.75,-1298.42 511.75,-1295.21 511.75,-1295.21 511.75,-1288.79 511.75,-1288.79 511.75,-1285.58 514.96,-1282.38 518.17,-1282.38 518.17,-1282.38 627.08,-1282.38 627.08,-1282.38 630.29,-1282.38 633.5,-1285.58 633.5,-1288.79 633.5,-1288.79 633.5,-1295.21 633.5,-1295.21 633.5,-1298.42 630.29,-1301.62 627.08,-1301.62"/>
<text xml:space="preserve" text-anchor="start" x="519.75" y="-1288.62" font-family="Helvetica,sans-Serif" font-size="9.00">AgentConfig.schema.ts</text>
</a>
</g>
</g>
<!-- src/adapters/file&#45;system/JsonAgentConfigStore.ts&#45;&gt;src/core/config/AgentConfig.schema.ts -->
<g id="edge5" class="edge">
<title>src/adapters/file&#45;system/JsonAgentConfigStore.ts&#45;&gt;src/core/config/AgentConfig.schema.ts</title>
<path fill="none" stroke="#000000" stroke-width="2" stroke-opacity="0.200000" d="M452.55,-846.21C479.36,-846.21 504.5,-846.21 504.5,-846.21 504.5,-846.21 504.5,-1292 504.5,-1292 504.5,-1292 505.18,-1292 505.18,-1292"/>
<polygon fill="#000000" fill-opacity="0.200000" stroke="#000000" stroke-width="2" stroke-opacity="0.200000" points="502.25,-1294.1 508.25,-1292 502.25,-1289.9 502.25,-1294.1"/>
</g>
<!-- src/adapters/file&#45;system/JsonFileTokenStore.ts -->
<g id="node9" class="node">
<title>src/adapters/file&#45;system/JsonFileTokenStore.ts</title>
<g id="a_node9"><a xlink:href="src/adapters/file-system/JsonFileTokenStore.ts" xlink:title="JsonFileTokenStore.ts">
<path fill="#ddfeff" stroke="black" d="M437.58,-788.62C437.58,-788.62 340.67,-788.62 340.67,-788.62 337.46,-788.62 334.25,-785.42 334.25,-782.21 334.25,-782.21 334.25,-775.79 334.25,-775.79 334.25,-772.58 337.46,-769.38 340.67,-769.38 340.67,-769.38 437.58,-769.38 437.58,-769.38 440.79,-769.38 444,-772.58 444,-775.79 444,-775.79 444,-782.21 444,-782.21 444,-785.42 440.79,-788.62 437.58,-788.62"/>
<text xml:space="preserve" text-anchor="start" x="342.25" y="-775.62" font-family="Helvetica,sans-Serif" font-size="9.00">JsonFileTokenStore.ts</text>
</a>
</g>
</g>
<!-- src/adapters/file&#45;system/JsonFileTokenStore.ts&#45;&gt;src/core/errors/AgentError.ts -->
<g id="edge7" class="edge">
<title>src/adapters/file&#45;system/JsonFileTokenStore.ts&#45;&gt;src/core/errors/AgentError.ts</title>
<path fill="none" stroke="#000000" stroke-width="2" stroke-opacity="0.200000" d="M444.47,-779C546.4,-779 753.5,-779 753.5,-779 753.5,-779 753.5,-1082.95 753.5,-1082.95"/>
<polygon fill="#000000" fill-opacity="0.200000" stroke="#000000" stroke-width="2" stroke-opacity="0.200000" points="751.4,-1082.95 753.5,-1088.95 755.6,-1082.95 751.4,-1082.95"/>
</g>
<!-- src/adapters/file&#45;system/JsonlConversationStore.ts -->
<g id="node10" class="node">
<title>src/adapters/file&#45;system/JsonlConversationStore.ts</title>
<g id="a_node10"><a xlink:href="src/adapters/file-system/JsonlConversationStore.ts" xlink:title="JsonlConversationStore.ts">
<path fill="#ddfeff" stroke="black" d="M448.08,-820.62C448.08,-820.62 330.17,-820.62 330.17,-820.62 326.96,-820.62 323.75,-817.42 323.75,-814.21 323.75,-814.21 323.75,-807.79 323.75,-807.79 323.75,-804.58 326.96,-801.38 330.17,-801.38 330.17,-801.38 448.08,-801.38 448.08,-801.38 451.29,-801.38 454.5,-804.58 454.5,-807.79 454.5,-807.79 454.5,-814.21 454.5,-814.21 454.5,-817.42 451.29,-820.62 448.08,-820.62"/>
<text xml:space="preserve" text-anchor="start" x="331.75" y="-807.62" font-family="Helvetica,sans-Serif" font-size="9.00">JsonlConversationStore.ts</text>
</a>
</g>
</g>
<!-- src/adapters/file&#45;system/JsonlConversationStore.ts&#45;&gt;src/core/errors/AgentError.ts -->
<g id="edge9" class="edge">
<title>src/adapters/file&#45;system/JsonlConversationStore.ts&#45;&gt;src/core/errors/AgentError.ts</title>
<path fill="none" stroke="#000000" stroke-width="2" stroke-opacity="0.200000" d="M454.99,-807.79C556.98,-807.79 741.5,-807.79 741.5,-807.79 741.5,-807.79 741.5,-1083.18 741.5,-1083.18"/>
<polygon fill="#000000" fill-opacity="0.200000" stroke="#000000" stroke-width="2" stroke-opacity="0.200000" points="739.4,-1083.18 741.5,-1089.18 743.6,-1083.18 739.4,-1083.18"/>
</g>
<!-- src/core/conversations/ConversationRecord.schema.ts -->
<g id="node11" class="node">
<title>src/core/conversations/ConversationRecord.schema.ts</title>
<g id="a_node11"><a xlink:href="src/core/conversations/ConversationRecord.schema.ts" xlink:title="ConversationRecord.schema.ts">
<path fill="#ddfeff" stroke="black" d="M825.08,-1396.62C825.08,-1396.62 682.42,-1396.62 682.42,-1396.62 679.21,-1396.62 676,-1393.42 676,-1390.21 676,-1390.21 676,-1383.79 676,-1383.79 676,-1380.58 679.21,-1377.38 682.42,-1377.38 682.42,-1377.38 825.08,-1377.38 825.08,-1377.38 828.29,-1377.38 831.5,-1380.58 831.5,-1383.79 831.5,-1383.79 831.5,-1390.21 831.5,-1390.21 831.5,-1393.42 828.29,-1396.62 825.08,-1396.62"/>
<text xml:space="preserve" text-anchor="start" x="684" y="-1383.62" font-family="Helvetica,sans-Serif" font-size="9.00">ConversationRecord.schema.ts</text>
</a>
</g>
</g>
<!-- src/adapters/file&#45;system/JsonlConversationStore.ts&#45;&gt;src/core/conversations/ConversationRecord.schema.ts -->
<g id="edge8" class="edge">
<title>src/adapters/file&#45;system/JsonlConversationStore.ts&#45;&gt;src/core/conversations/ConversationRecord.schema.ts</title>
<path fill="none" stroke="#000000" stroke-width="2" stroke-opacity="0.200000" d="M454.64,-814.21C544.36,-814.21 694.5,-814.21 694.5,-814.21 694.5,-814.21 694.5,-1368.03 694.5,-1368.03"/>
<polygon fill="#000000" fill-opacity="0.200000" stroke="#000000" stroke-width="2" stroke-opacity="0.200000" points="692.4,-1368.03 694.5,-1374.03 696.6,-1368.03 692.4,-1368.03"/>
</g>
<!-- src/adapters/memory/simple&#45;linear/SimpleLinearMemory.ts -->
<g id="node12" class="node">
<title>src/adapters/memory/simple&#45;linear/SimpleLinearMemory.ts</title>
<g id="a_node12"><a xlink:href="src/adapters/memory/simple-linear/SimpleLinearMemory.ts" xlink:title="SimpleLinearMemory.ts">
<path fill="#ddfeff" stroke="black" d="M442.83,-923.62C442.83,-923.62 335.42,-923.62 335.42,-923.62 332.21,-923.62 329,-920.42 329,-917.21 329,-917.21 329,-910.79 329,-910.79 329,-907.58 332.21,-904.38 335.42,-904.38 335.42,-904.38 442.83,-904.38 442.83,-904.38 446.04,-904.38 449.25,-907.58 449.25,-910.79 449.25,-910.79 449.25,-917.21 449.25,-917.21 449.25,-920.42 446.04,-923.62 442.83,-923.62"/>
<text xml:space="preserve" text-anchor="start" x="337" y="-910.62" font-family="Helvetica,sans-Serif" font-size="9.00">SimpleLinearMemory.ts</text>
</a>
</g>
</g>
<!-- src/adapters/tools/MathTool.ts -->
<g id="node13" class="node">
<title>src/adapters/tools/MathTool.ts</title>
<g id="a_node13"><a xlink:href="src/adapters/tools/MathTool.ts" xlink:title="MathTool.ts">
<path fill="#ddfeff" stroke="black" d="M415.83,-1013.62C415.83,-1013.62 362.42,-1013.62 362.42,-1013.62 359.21,-1013.62 356,-1010.42 356,-1007.21 356,-1007.21 356,-1000.79 356,-1000.79 356,-997.58 359.21,-994.38 362.42,-994.38 362.42,-994.38 415.83,-994.38 415.83,-994.38 419.04,-994.38 422.25,-997.58 422.25,-1000.79 422.25,-1000.79 422.25,-1007.21 422.25,-1007.21 422.25,-1010.42 419.04,-1013.62 415.83,-1013.62"/>
<text xml:space="preserve" text-anchor="start" x="364" y="-1000.62" font-family="Helvetica,sans-Serif" font-size="9.00">MathTool.ts</text>
</a>
</g>
</g>
<!-- src/apps/cli/CliRuntime.interface.ts -->
<g id="node14" class="node">
<title>src/apps/cli/CliRuntime.interface.ts</title>
<g id="a_node14"><a xlink:href="src/apps/cli/CliRuntime.interface.ts" xlink:title="CliRuntime.interface.ts">
<path fill="#ccffcc" stroke="black" d="M144.33,-337.62C144.33,-337.62 38.42,-337.62 38.42,-337.62 35.21,-337.62 32,-334.42 32,-331.21 32,-331.21 32,-324.79 32,-324.79 32,-321.58 35.21,-318.38 38.42,-318.38 38.42,-318.38 144.33,-318.38 144.33,-318.38 147.54,-318.38 150.75,-321.58 150.75,-324.79 150.75,-324.79 150.75,-331.21 150.75,-331.21 150.75,-334.42 147.54,-337.62 144.33,-337.62"/>
<text xml:space="preserve" text-anchor="start" x="40" y="-324.62" font-family="Helvetica,sans-Serif" font-size="9.00">CliRuntime.interface.ts</text>
</a>
</g>
</g>
<!-- src/apps/cli/auth.ts -->
<g id="node15" class="node">
<title>src/apps/cli/auth.ts</title>
<g id="a_node15"><a xlink:href="src/apps/cli/auth.ts" xlink:title="auth.ts">
<path fill="#ddfeff" stroke="black" d="M409.71,-321.62C409.71,-321.62 368.54,-321.62 368.54,-321.62 365.33,-321.62 362.12,-318.42 362.12,-315.21 362.12,-315.21 362.12,-308.79 362.12,-308.79 362.12,-305.58 365.33,-302.38 368.54,-302.38 368.54,-302.38 409.71,-302.38 409.71,-302.38 412.92,-302.38 416.12,-305.58 416.12,-308.79 416.12,-308.79 416.12,-315.21 416.12,-315.21 416.12,-318.42 412.92,-321.62 409.71,-321.62"/>
<text xml:space="preserve" text-anchor="start" x="373" y="-308.62" font-family="Helvetica,sans-Serif" font-size="9.00">auth.ts</text>
</a>
</g>
</g>
<!-- src/apps/cli/commands.ts -->
<g id="node16" class="node">
<title>src/apps/cli/commands.ts</title>
<g id="a_node16"><a xlink:href="src/apps/cli/commands.ts" xlink:title="commands.ts">
<path fill="#ddfeff" stroke="black" d="M266.21,-305.62C266.21,-305.62 201.54,-305.62 201.54,-305.62 198.33,-305.62 195.12,-302.42 195.12,-299.21 195.12,-299.21 195.12,-292.79 195.12,-292.79 195.12,-289.58 198.33,-286.38 201.54,-286.38 201.54,-286.38 266.21,-286.38 266.21,-286.38 269.42,-286.38 272.62,-289.58 272.62,-292.79 272.62,-292.79 272.62,-299.21 272.62,-299.21 272.62,-302.42 269.42,-305.62 266.21,-305.62"/>
<text xml:space="preserve" text-anchor="start" x="203.12" y="-292.62" font-family="Helvetica,sans-Serif" font-size="9.00">commands.ts</text>
</a>
</g>
</g>
<!-- src/apps/cli/composeCliRuntime.ts -->
<g id="node17" class="node">
<title>src/apps/cli/composeCliRuntime.ts</title>
<g id="a_node17"><a xlink:href="src/apps/cli/composeCliRuntime.ts" xlink:title="composeCliRuntime.ts">
<path fill="#ddfeff" stroke="black" d="M285.71,-337.62C285.71,-337.62 182.04,-337.62 182.04,-337.62 178.83,-337.62 175.62,-334.42 175.62,-331.21 175.62,-331.21 175.62,-324.79 175.62,-324.79 175.62,-321.58 178.83,-318.38 182.04,-318.38 182.04,-318.38 285.71,-318.38 285.71,-318.38 288.92,-318.38 292.12,-321.58 292.12,-324.79 292.12,-324.79 292.12,-331.21 292.12,-331.21 292.12,-334.42 288.92,-337.62 285.71,-337.62"/>
<text xml:space="preserve" text-anchor="start" x="183.62" y="-324.62" font-family="Helvetica,sans-Serif" font-size="9.00">composeCliRuntime.ts</text>
</a>
</g>
</g>
<!-- src/apps/cli/composeCliRuntime.ts&#45;&gt;src/adapters/codex/auth/CodexAuthClient.ts -->
<g id="edge10" class="edge">
<title>src/apps/cli/composeCliRuntime.ts&#45;&gt;src/adapters/codex/auth/CodexAuthClient.ts</title>
<path fill="none" stroke="#000000" stroke-width="2" stroke-opacity="0.200000" d="M292.58,-328C304.51,-328 313.5,-328 313.5,-328 313.5,-328 313.5,-657 313.5,-657 313.5,-657 328.82,-657 328.82,-657"/>
<polygon fill="#000000" fill-opacity="0.200000" stroke="#000000" stroke-width="2" stroke-opacity="0.200000" points="328.82,-659.1 334.82,-657 328.82,-654.9 328.82,-659.1"/>
</g>
<!-- src/apps/cli/composeCliRuntime.ts&#45;&gt;src/adapters/codex/auth/CodexOAuthFlow.ts -->
<g id="edge11" class="edge">
<title>src/apps/cli/composeCliRuntime.ts&#45;&gt;src/adapters/codex/auth/CodexOAuthFlow.ts</title>
<path fill="none" stroke="#000000" stroke-width="2" stroke-opacity="0.200000" d="M292.6,-330.12C301.35,-330.12 307.5,-330.12 307.5,-330.12 307.5,-330.12 307.5,-689 307.5,-689 307.5,-689 328.4,-689 328.4,-689"/>
<polygon fill="#000000" fill-opacity="0.200000" stroke="#000000" stroke-width="2" stroke-opacity="0.200000" points="328.4,-691.1 334.4,-689 328.4,-686.9 328.4,-691.1"/>
</g>
<!-- src/apps/cli/composeCliRuntime.ts&#45;&gt;src/adapters/codex/responses/CodexModelClient.ts -->
<g id="edge12" class="edge">
<title>src/apps/cli/composeCliRuntime.ts&#45;&gt;src/adapters/codex/responses/CodexModelClient.ts</title>
<path fill="none" stroke="#000000" stroke-width="2" stroke-opacity="0.200000" d="M292.19,-325.88C306.85,-325.88 318.5,-325.88 318.5,-325.88 318.5,-325.88 318.5,-562 318.5,-562 318.5,-562 326.57,-562 326.57,-562"/>
<polygon fill="#000000" fill-opacity="0.200000" stroke="#000000" stroke-width="2" stroke-opacity="0.200000" points="326.57,-564.1 332.57,-562 326.57,-559.9 326.57,-564.1"/>
</g>
<!-- src/apps/cli/composeCliRuntime.ts&#45;&gt;src/adapters/file&#45;system/JsonAgentConfigStore.ts -->
<g id="edge13" class="edge">
<title>src/apps/cli/composeCliRuntime.ts&#45;&gt;src/adapters/file&#45;system/JsonAgentConfigStore.ts</title>
<path fill="none" stroke="#000000" stroke-width="2" stroke-opacity="0.200000" d="M175.31,-333.35C169.96,-333.35 166.5,-333.35 166.5,-333.35 166.5,-333.35 166.5,-843 166.5,-843 166.5,-843 316.6,-843 316.6,-843"/>
<polygon fill="#000000" fill-opacity="0.200000" stroke="#000000" stroke-width="2" stroke-opacity="0.200000" points="316.6,-845.1 322.6,-843 316.6,-840.9 316.6,-845.1"/>
</g>
<!-- src/apps/cli/composeCliRuntime.ts&#45;&gt;src/adapters/file&#45;system/JsonFileTokenStore.ts -->
<g id="edge14" class="edge">
<title>src/apps/cli/composeCliRuntime.ts&#45;&gt;src/adapters/file&#45;system/JsonFileTokenStore.ts</title>
<path fill="none" stroke="#000000" stroke-width="2" stroke-opacity="0.200000" d="M292.37,-332.25C298.47,-332.25 302.5,-332.25 302.5,-332.25 302.5,-332.25 302.5,-779 302.5,-779 302.5,-779 324.75,-779 324.75,-779"/>
<polygon fill="#000000" fill-opacity="0.200000" stroke="#000000" stroke-width="2" stroke-opacity="0.200000" points="324.75,-781.1 330.75,-779 324.75,-776.9 324.75,-781.1"/>
</g>
<!-- src/apps/cli/composeCliRuntime.ts&#45;&gt;src/adapters/file&#45;system/JsonlConversationStore.ts -->
<g id="edge15" class="edge">
<title>src/apps/cli/composeCliRuntime.ts&#45;&gt;src/adapters/file&#45;system/JsonlConversationStore.ts</title>
<path fill="none" stroke="#000000" stroke-width="2" stroke-opacity="0.200000" d="M175.5,-335.49C171.2,-335.49 168.5,-335.49 168.5,-335.49 168.5,-335.49 168.5,-811 168.5,-811 168.5,-811 314.5,-811 314.5,-811"/>
<polygon fill="#000000" fill-opacity="0.200000" stroke="#000000" stroke-width="2" stroke-opacity="0.200000" points="314.5,-813.1 320.5,-811 314.5,-808.9 314.5,-813.1"/>
</g>
<!-- src/apps/cli/composeCliRuntime.ts&#45;&gt;src/adapters/memory/simple&#45;linear/SimpleLinearMemory.ts -->
<g id="edge16" class="edge">
<title>src/apps/cli/composeCliRuntime.ts&#45;&gt;src/adapters/memory/simple&#45;linear/SimpleLinearMemory.ts</title>
<path fill="none" stroke="#000000" stroke-width="2" stroke-opacity="0.200000" d="M175.34,-331.21C168.84,-331.21 164.5,-331.21 164.5,-331.21 164.5,-331.21 164.5,-914 164.5,-914 164.5,-914 319.61,-914 319.61,-914"/>
<polygon fill="#000000" fill-opacity="0.200000" stroke="#000000" stroke-width="2" stroke-opacity="0.200000" points="319.61,-916.1 325.61,-914 319.61,-911.9 319.61,-916.1"/>
</g>
<!-- src/apps/cli/composeCliRuntime.ts&#45;&gt;src/adapters/tools/MathTool.ts -->
<g id="edge17" class="edge">
<title>src/apps/cli/composeCliRuntime.ts&#45;&gt;src/adapters/tools/MathTool.ts</title>
<path fill="none" stroke="#000000" stroke-width="2" stroke-opacity="0.200000" d="M175.26,-329.07C167.69,-329.07 162.5,-329.07 162.5,-329.07 162.5,-329.07 162.5,-1004 162.5,-1004 162.5,-1004 346.66,-1004 346.66,-1004"/>
<polygon fill="#000000" fill-opacity="0.200000" stroke="#000000" stroke-width="2" stroke-opacity="0.200000" points="346.66,-1006.1 352.66,-1004 346.66,-1001.9 346.66,-1006.1"/>
</g>
<!-- src/apps/cli/composeCliRuntime.ts&#45;&gt;src/apps/cli/auth.ts -->
<g id="edge21" class="edge">
<title>src/apps/cli/composeCliRuntime.ts&#45;&gt;src/apps/cli/auth.ts</title>
<path fill="none" stroke="#000000" stroke-width="2" stroke-opacity="0.200000" d="M282.5,-318.14C282.5,-314.85 282.5,-312 282.5,-312 282.5,-312 352.64,-312 352.64,-312"/>
<polygon fill="#000000" fill-opacity="0.200000" stroke="#000000" stroke-width="2" stroke-opacity="0.200000" points="352.64,-314.1 358.64,-312 352.64,-309.9 352.64,-314.1"/>
</g>
<!-- src/core/agent/Agent.ts -->
<g id="node18" class="node">
<title>src/core/agent/Agent.ts</title>
<g id="a_node18"><a xlink:href="src/core/agent/Agent.ts" xlink:title="Agent.ts">
<path fill="#ddfeff" stroke="black" d="M593.33,-1111.62C593.33,-1111.62 551.92,-1111.62 551.92,-1111.62 548.71,-1111.62 545.5,-1108.42 545.5,-1105.21 545.5,-1105.21 545.5,-1098.79 545.5,-1098.79 545.5,-1095.58 548.71,-1092.38 551.92,-1092.38 551.92,-1092.38 593.33,-1092.38 593.33,-1092.38 596.54,-1092.38 599.75,-1095.58 599.75,-1098.79 599.75,-1098.79 599.75,-1105.21 599.75,-1105.21 599.75,-1108.42 596.54,-1111.62 593.33,-1111.62"/>
<text xml:space="preserve" text-anchor="start" x="553.5" y="-1098.62" font-family="Helvetica,sans-Serif" font-size="9.00">Agent.ts</text>
</a>
</g>
</g>
<!-- src/apps/cli/composeCliRuntime.ts&#45;&gt;src/core/agent/Agent.ts -->
<g id="edge18" class="edge">
<title>src/apps/cli/composeCliRuntime.ts&#45;&gt;src/core/agent/Agent.ts</title>
<path fill="none" stroke="#000000" stroke-width="2" stroke-opacity="0.200000" d="M175.35,-326.93C166.63,-326.93 160.5,-326.93 160.5,-326.93 160.5,-326.93 160.5,-1102 160.5,-1102 160.5,-1102 536.24,-1102 536.24,-1102"/>
<polygon fill="#000000" fill-opacity="0.200000" stroke="#000000" stroke-width="2" stroke-opacity="0.200000" points="536.24,-1104.1 542.24,-1102 536.24,-1099.9 536.24,-1104.1"/>
</g>
<!-- src/core/conversations/ConversationManager.ts -->
<g id="node19" class="node">
<title>src/core/conversations/ConversationManager.ts</title>
<g id="a_node19"><a xlink:href="src/core/conversations/ConversationManager.ts" xlink:title="ConversationManager.ts">
<path fill="#ddfeff" stroke="black" d="M628.21,-1396.62C628.21,-1396.62 517.04,-1396.62 517.04,-1396.62 513.83,-1396.62 510.62,-1393.42 510.62,-1390.21 510.62,-1390.21 510.62,-1383.79 510.62,-1383.79 510.62,-1380.58 513.83,-1377.38 517.04,-1377.38 517.04,-1377.38 628.21,-1377.38 628.21,-1377.38 631.42,-1377.38 634.62,-1380.58 634.62,-1383.79 634.62,-1383.79 634.62,-1390.21 634.62,-1390.21 634.62,-1393.42 631.42,-1396.62 628.21,-1396.62"/>
<text xml:space="preserve" text-anchor="start" x="518.62" y="-1383.62" font-family="Helvetica,sans-Serif" font-size="9.00">ConversationManager.ts</text>
</a>
</g>
</g>
<!-- src/apps/cli/composeCliRuntime.ts&#45;&gt;src/core/conversations/ConversationManager.ts -->
<g id="edge19" class="edge">
<title>src/apps/cli/composeCliRuntime.ts&#45;&gt;src/core/conversations/ConversationManager.ts</title>
<path fill="none" stroke="#000000" stroke-width="2" stroke-opacity="0.200000" d="M175.23,-324.79C165.5,-324.79 158.5,-324.79 158.5,-324.79 158.5,-324.79 158.5,-1387 158.5,-1387 158.5,-1387 501.15,-1387 501.15,-1387"/>
<polygon fill="#000000" fill-opacity="0.200000" stroke="#000000" stroke-width="2" stroke-opacity="0.200000" points="501.15,-1389.1 507.15,-1387 501.15,-1384.9 501.15,-1389.1"/>
</g>
<!-- src/core/tools/ToolRegistry.ts -->
<g id="node20" class="node">
<title>src/core/tools/ToolRegistry.ts</title>
<g id="a_node20"><a xlink:href="src/core/tools/ToolRegistry.ts" xlink:title="ToolRegistry.ts">
<path fill="#ddfeff" stroke="black" d="M605.71,-1744.62C605.71,-1744.62 539.54,-1744.62 539.54,-1744.62 536.33,-1744.62 533.12,-1741.42 533.12,-1738.21 533.12,-1738.21 533.12,-1731.79 533.12,-1731.79 533.12,-1728.58 536.33,-1725.38 539.54,-1725.38 539.54,-1725.38 605.71,-1725.38 605.71,-1725.38 608.92,-1725.38 612.12,-1728.58 612.12,-1731.79 612.12,-1731.79 612.12,-1738.21 612.12,-1738.21 612.12,-1741.42 608.92,-1744.62 605.71,-1744.62"/>
<text xml:space="preserve" text-anchor="start" x="541.12" y="-1731.62" font-family="Helvetica,sans-Serif" font-size="9.00">ToolRegistry.ts</text>
</a>
</g>
</g>
<!-- src/apps/cli/composeCliRuntime.ts&#45;&gt;src/core/tools/ToolRegistry.ts -->
<g id="edge20" class="edge">
<title>src/apps/cli/composeCliRuntime.ts&#45;&gt;src/core/tools/ToolRegistry.ts</title>
<path fill="none" stroke="#000000" stroke-width="2" stroke-opacity="0.200000" d="M175.23,-322.65C164.44,-322.65 156.5,-322.65 156.5,-322.65 156.5,-322.65 156.5,-1735 156.5,-1735 156.5,-1735 523.7,-1735 523.7,-1735"/>
<polygon fill="#000000" fill-opacity="0.200000" stroke="#000000" stroke-width="2" stroke-opacity="0.200000" points="523.7,-1737.1 529.7,-1735 523.7,-1732.9 523.7,-1737.1"/>
</g>
<!-- src/apps/cli/createSettingsUpdater.ts -->
<g id="node21" class="node">
<title>src/apps/cli/createSettingsUpdater.ts</title>
<g id="a_node21"><a xlink:href="src/apps/cli/createSettingsUpdater.ts" xlink:title="createSettingsUpdater.ts">
<path fill="#ddfeff" stroke="black" d="M447.33,-353.62C447.33,-353.62 330.92,-353.62 330.92,-353.62 327.71,-353.62 324.5,-350.42 324.5,-347.21 324.5,-347.21 324.5,-340.79 324.5,-340.79 324.5,-337.58 327.71,-334.38 330.92,-334.38 330.92,-334.38 447.33,-334.38 447.33,-334.38 450.54,-334.38 453.75,-337.58 453.75,-340.79 453.75,-340.79 453.75,-347.21 453.75,-347.21 453.75,-350.42 450.54,-353.62 447.33,-353.62"/>
<text xml:space="preserve" text-anchor="start" x="332.5" y="-340.62" font-family="Helvetica,sans-Serif" font-size="9.00">createSettingsUpdater.ts</text>
</a>
</g>
</g>
<!-- src/apps/cli/composeCliRuntime.ts&#45;&gt;src/apps/cli/createSettingsUpdater.ts -->
<g id="edge22" class="edge">
<title>src/apps/cli/composeCliRuntime.ts&#45;&gt;src/apps/cli/createSettingsUpdater.ts</title>
<path fill="none" stroke="#000000" stroke-width="2" stroke-opacity="0.200000" d="M292.46,-323.75C311.81,-323.75 328.5,-323.75 328.5,-323.75 328.5,-323.75 328.5,-324.85 328.5,-324.85"/>
<polygon fill="#000000" fill-opacity="0.200000" stroke="#000000" stroke-width="2" stroke-opacity="0.200000" points="326.4,-324.85 328.5,-330.85 330.6,-324.85 326.4,-324.85"/>
</g>
<!-- src/core/conversations/ConversationManager.ts&#45;&gt;src/core/errors/AgentError.ts -->
<g id="edge39" class="edge">
<title>src/core/conversations/ConversationManager.ts&#45;&gt;src/core/errors/AgentError.ts</title>
<path fill="none" stroke="#000000" stroke-width="2" stroke-opacity="0.200000" d="M635.08,-1382.19C649.4,-1382.19 660.5,-1382.19 660.5,-1382.19 660.5,-1382.19 660.5,-1098.79 660.5,-1098.79 660.5,-1098.79 706.26,-1098.79 706.26,-1098.79"/>
<polygon fill="#000000" fill-opacity="0.200000" stroke="#000000" stroke-width="2" stroke-opacity="0.200000" points="706.26,-1100.89 712.26,-1098.79 706.26,-1096.69 706.26,-1100.89"/>
</g>
<!-- src/core/conversations/ConversationManager.ts&#45;&gt;src/core/conversations/ConversationRecord.schema.ts -->
<g id="edge40" class="edge">
<title>src/core/conversations/ConversationManager.ts&#45;&gt;src/core/conversations/ConversationRecord.schema.ts</title>
<path fill="none" stroke="#000000" stroke-width="2" stroke-opacity="0.200000" d="M634.96,-1387C634.96,-1387 666.6,-1387 666.6,-1387"/>
<polygon fill="#000000" fill-opacity="0.200000" stroke="#000000" stroke-width="2" stroke-opacity="0.200000" points="666.6,-1389.1 672.6,-1387 666.6,-1384.9 666.6,-1389.1"/>
</g>
<!-- src/core/conversations/ids.ts -->
<g id="node42" class="node">
<title>src/core/conversations/ids.ts</title>
<g id="a_node42"><a xlink:href="src/core/conversations/ids.ts" xlink:title="ids.ts">
<path fill="#ddfeff" stroke="black" d="M774.33,-1428.62C774.33,-1428.62 733.17,-1428.62 733.17,-1428.62 729.96,-1428.62 726.75,-1425.42 726.75,-1422.21 726.75,-1422.21 726.75,-1415.79 726.75,-1415.79 726.75,-1412.58 729.96,-1409.38 733.17,-1409.38 733.17,-1409.38 774.33,-1409.38 774.33,-1409.38 777.54,-1409.38 780.75,-1412.58 780.75,-1415.79 780.75,-1415.79 780.75,-1422.21 780.75,-1422.21 780.75,-1425.42 777.54,-1428.62 774.33,-1428.62"/>
<text xml:space="preserve" text-anchor="start" x="741.75" y="-1415.62" font-family="Helvetica,sans-Serif" font-size="9.00">ids.ts</text>
</a>
</g>
</g>
<!-- src/core/conversations/ConversationManager.ts&#45;&gt;src/core/conversations/ids.ts -->
<g id="edge41" class="edge">
<title>src/core/conversations/ConversationManager.ts&#45;&gt;src/core/conversations/ids.ts</title>
<path fill="none" stroke="#000000" stroke-width="2" stroke-opacity="0.200000" d="M634.89,-1391.81C654.19,-1391.81 670.5,-1391.81 670.5,-1391.81 670.5,-1391.81 670.5,-1419 670.5,-1419 670.5,-1419 717.46,-1419 717.46,-1419"/>
<polygon fill="#000000" fill-opacity="0.200000" stroke="#000000" stroke-width="2" stroke-opacity="0.200000" points="717.46,-1421.1 723.46,-1419 717.46,-1416.9 717.46,-1421.1"/>
</g>
<!-- src/core/tools/ToolRegistry.ts&#45;&gt;src/core/errors/AgentError.ts -->
<g id="edge42" class="edge">
<title>src/core/tools/ToolRegistry.ts&#45;&gt;src/core/errors/AgentError.ts</title>
<path fill="none" stroke="#000000" stroke-width="2" stroke-opacity="0.200000" d="M612.55,-1735C637.72,-1735 665.5,-1735 665.5,-1735 665.5,-1735 665.5,-1105.21 665.5,-1105.21 665.5,-1105.21 706.27,-1105.21 706.27,-1105.21"/>
<polygon fill="#000000" fill-opacity="0.200000" stroke="#000000" stroke-width="2" stroke-opacity="0.200000" points="706.27,-1107.31 712.27,-1105.21 706.27,-1103.11 706.27,-1107.31"/>
</g>
<!-- src/apps/cli/conversationHistory.ts -->
<g id="node22" class="node">
<title>src/apps/cli/conversationHistory.ts</title>
<g id="a_node22"><a xlink:href="src/apps/cli/conversationHistory.ts" xlink:title="conversationHistory.ts">
<path fill="#ddfeff" stroke="black" d="M284.96,-369.62C284.96,-369.62 182.79,-369.62 182.79,-369.62 179.58,-369.62 176.38,-366.42 176.38,-363.21 176.38,-363.21 176.38,-356.79 176.38,-356.79 176.38,-353.58 179.58,-350.38 182.79,-350.38 182.79,-350.38 284.96,-350.38 284.96,-350.38 288.17,-350.38 291.38,-353.58 291.38,-356.79 291.38,-356.79 291.38,-363.21 291.38,-363.21 291.38,-366.42 288.17,-369.62 284.96,-369.62"/>
<text xml:space="preserve" text-anchor="start" x="184.38" y="-356.62" font-family="Helvetica,sans-Serif" font-size="9.00">conversationHistory.ts</text>
</a>
</g>
</g>
<!-- src/apps/cli/conversationSelection.ts -->
<g id="node23" class="node">
<title>src/apps/cli/conversationSelection.ts</title>
<g id="a_node23"><a xlink:href="src/apps/cli/conversationSelection.ts" xlink:title="conversationSelection.ts">
<path fill="#ddfeff" stroke="black" d="M290.58,-401.62C290.58,-401.62 177.17,-401.62 177.17,-401.62 173.96,-401.62 170.75,-398.42 170.75,-395.21 170.75,-395.21 170.75,-388.79 170.75,-388.79 170.75,-385.58 173.96,-382.38 177.17,-382.38 177.17,-382.38 290.58,-382.38 290.58,-382.38 293.79,-382.38 297,-385.58 297,-388.79 297,-388.79 297,-395.21 297,-395.21 297,-398.42 293.79,-401.62 290.58,-401.62"/>
<text xml:space="preserve" text-anchor="start" x="178.75" y="-388.62" font-family="Helvetica,sans-Serif" font-size="9.00">conversationSelection.ts</text>
</a>
</g>
</g>
<!-- src/apps/cli/main.ts -->
<g id="node24" class="node">
<title>src/apps/cli/main.ts</title>
<g id="a_node24"><a xlink:href="src/apps/cli/main.ts" xlink:title="main.ts">
<path fill="#ddfeff" stroke="black" d="M111.96,-385.62C111.96,-385.62 70.79,-385.62 70.79,-385.62 67.58,-385.62 64.38,-382.42 64.38,-379.21 64.38,-379.21 64.38,-372.79 64.38,-372.79 64.38,-369.58 67.58,-366.38 70.79,-366.38 70.79,-366.38 111.96,-366.38 111.96,-366.38 115.17,-366.38 118.38,-369.58 118.38,-372.79 118.38,-372.79 118.38,-379.21 118.38,-379.21 118.38,-382.42 115.17,-385.62 111.96,-385.62"/>
<text xml:space="preserve" text-anchor="start" x="74.5" y="-372.62" font-family="Helvetica,sans-Serif" font-size="9.00">main.ts</text>
</a>
</g>
</g>
<!-- src/apps/cli/main.ts&#45;&gt;src/apps/cli/commands.ts -->
<g id="edge23" class="edge">
<title>src/apps/cli/main.ts&#45;&gt;src/apps/cli/commands.ts</title>
<path fill="none" stroke="#000000" stroke-width="2" stroke-opacity="0.200000" d="M118.72,-373.88C134.99,-373.88 152.5,-373.88 152.5,-373.88 152.5,-373.88 152.5,-296 152.5,-296 152.5,-296 186.07,-296 186.07,-296"/>
<polygon fill="#000000" fill-opacity="0.200000" stroke="#000000" stroke-width="2" stroke-opacity="0.200000" points="186.07,-298.1 192.07,-296 186.07,-293.9 186.07,-298.1"/>
</g>
<!-- src/apps/cli/main.ts&#45;&gt;src/apps/cli/composeCliRuntime.ts -->
<g id="edge24" class="edge">
<title>src/apps/cli/main.ts&#45;&gt;src/apps/cli/composeCliRuntime.ts</title>
<path fill="none" stroke="#000000" stroke-width="2" stroke-opacity="0.200000" d="M118.51,-378.12C135.62,-378.12 154.5,-378.12 154.5,-378.12 154.5,-378.12 154.5,-320.51 154.5,-320.51 154.5,-320.51 166.33,-320.51 166.33,-320.51"/>
<polygon fill="#000000" fill-opacity="0.200000" stroke="#000000" stroke-width="2" stroke-opacity="0.200000" points="166.33,-322.61 172.33,-320.51 166.33,-318.41 166.33,-322.61"/>
</g>
<!-- src/apps/cli/main.ts&#45;&gt;src/apps/cli/conversationHistory.ts -->
<g id="edge25" class="edge">
<title>src/apps/cli/main.ts&#45;&gt;src/apps/cli/conversationHistory.ts</title>
<path fill="none" stroke="#000000" stroke-width="2" stroke-opacity="0.200000" d="M91.5,-365.95C91.5,-361.99 91.5,-358.38 91.5,-358.38 91.5,-358.38 166.94,-358.38 166.94,-358.38"/>
<polygon fill="#000000" fill-opacity="0.200000" stroke="#000000" stroke-width="2" stroke-opacity="0.200000" points="166.94,-360.48 172.94,-358.38 166.94,-356.28 166.94,-360.48"/>
</g>
<!-- src/apps/cli/main.ts&#45;&gt;src/apps/cli/conversationSelection.ts -->
<g id="edge26" class="edge">
<title>src/apps/cli/main.ts&#45;&gt;src/apps/cli/conversationSelection.ts</title>
<path fill="none" stroke="#000000" stroke-width="2" stroke-opacity="0.200000" d="M104.5,-386.05C104.5,-390.01 104.5,-393.62 104.5,-393.62 104.5,-393.62 161.3,-393.62 161.3,-393.62"/>
<polygon fill="#000000" fill-opacity="0.200000" stroke="#000000" stroke-width="2" stroke-opacity="0.200000" points="161.3,-395.73 167.3,-393.63 161.3,-391.53 161.3,-395.73"/>
</g>
<!-- src/apps/cli/readline.ts -->
<g id="node25" class="node">
<title>src/apps/cli/readline.ts</title>
<g id="a_node25"><a xlink:href="src/apps/cli/readline.ts" xlink:title="readline.ts">
<path fill="#ddfeff" stroke="black" d="M259.08,-433.62C259.08,-433.62 208.67,-433.62 208.67,-433.62 205.46,-433.62 202.25,-430.42 202.25,-427.21 202.25,-427.21 202.25,-420.79 202.25,-420.79 202.25,-417.58 205.46,-414.38 208.67,-414.38 208.67,-414.38 259.08,-414.38 259.08,-414.38 262.29,-414.38 265.5,-417.58 265.5,-420.79 265.5,-420.79 265.5,-427.21 265.5,-427.21 265.5,-430.42 262.29,-433.62 259.08,-433.62"/>
<text xml:space="preserve" text-anchor="start" x="210.25" y="-420.62" font-family="Helvetica,sans-Serif" font-size="9.00">readline.ts</text>
</a>
</g>
</g>
<!-- src/apps/cli/main.ts&#45;&gt;src/apps/cli/readline.ts -->
<g id="edge27" class="edge">
<title>src/apps/cli/main.ts&#45;&gt;src/apps/cli/readline.ts</title>
<path fill="none" stroke="#000000" stroke-width="2" stroke-opacity="0.200000" d="M91.5,-385.71C91.5,-399.74 91.5,-424 91.5,-424 91.5,-424 192.9,-424 192.9,-424"/>
<polygon fill="#000000" fill-opacity="0.200000" stroke="#000000" stroke-width="2" stroke-opacity="0.200000" points="192.9,-426.1 198.9,-424 192.9,-421.9 192.9,-426.1"/>
</g>
<!-- src/apps/cli/render.ts -->
<g id="node26" class="node">
<title>src/apps/cli/render.ts</title>
<g id="a_node26"><a xlink:href="src/apps/cli/render.ts" xlink:title="render.ts">
<path fill="#ddfeff" stroke="black" d="M255.71,-465.62C255.71,-465.62 212.04,-465.62 212.04,-465.62 208.83,-465.62 205.62,-462.42 205.62,-459.21 205.62,-459.21 205.62,-452.79 205.62,-452.79 205.62,-449.58 208.83,-446.38 212.04,-446.38 212.04,-446.38 255.71,-446.38 255.71,-446.38 258.92,-446.38 262.12,-449.58 262.12,-452.79 262.12,-452.79 262.12,-459.21 262.12,-459.21 262.12,-462.42 258.92,-465.62 255.71,-465.62"/>
<text xml:space="preserve" text-anchor="start" x="213.62" y="-452.62" font-family="Helvetica,sans-Serif" font-size="9.00">render.ts</text>
</a>
</g>
</g>
<!-- src/apps/cli/main.ts&#45;&gt;src/apps/cli/render.ts -->
<g id="edge28" class="edge">
<title>src/apps/cli/main.ts&#45;&gt;src/apps/cli/render.ts</title>
<path fill="none" stroke="#000000" stroke-width="2" stroke-opacity="0.200000" d="M77.5,-385.81C77.5,-407.17 77.5,-456 77.5,-456 77.5,-456 196.17,-456 196.17,-456"/>
<polygon fill="#000000" fill-opacity="0.200000" stroke="#000000" stroke-width="2" stroke-opacity="0.200000" points="196.17,-458.1 202.17,-456 196.17,-453.9 196.17,-458.1"/>
</g>
<!-- src/apps/web/App.tsx -->
<g id="node27" class="node">
<title>src/apps/web/App.tsx</title>
<g id="a_node27"><a xlink:href="src/apps/web/App.tsx" xlink:title="App.tsx">
<path fill="#bbfeff" stroke="black" d="M254.46,-139.62C254.46,-139.62 213.29,-139.62 213.29,-139.62 210.08,-139.62 206.88,-136.42 206.88,-133.21 206.88,-133.21 206.88,-126.79 206.88,-126.79 206.88,-123.58 210.08,-120.38 213.29,-120.38 213.29,-120.38 254.46,-120.38 254.46,-120.38 257.67,-120.38 260.88,-123.58 260.88,-126.79 260.88,-126.79 260.88,-133.21 260.88,-133.21 260.88,-136.42 257.67,-139.62 254.46,-139.62"/>
<text xml:space="preserve" text-anchor="start" x="216.62" y="-126.62" font-family="Helvetica,sans-Serif" font-size="9.00">App.tsx</text>
</a>
</g>
</g>
<!-- src/apps/web/components/OwletOnboarding.tsx -->
<g id="node28" class="node">
<title>src/apps/web/components/OwletOnboarding.tsx</title>
<g id="a_node28"><a xlink:href="src/apps/web/components/OwletOnboarding.tsx" xlink:title="OwletOnboarding.tsx">
<path fill="#bbfeff" stroke="black" d="M438.33,-139.62C438.33,-139.62 339.92,-139.62 339.92,-139.62 336.71,-139.62 333.5,-136.42 333.5,-133.21 333.5,-133.21 333.5,-126.79 333.5,-126.79 333.5,-123.58 336.71,-120.38 339.92,-120.38 339.92,-120.38 438.33,-120.38 438.33,-120.38 441.54,-120.38 444.75,-123.58 444.75,-126.79 444.75,-126.79 444.75,-133.21 444.75,-133.21 444.75,-136.42 441.54,-139.62 438.33,-139.62"/>
<text xml:space="preserve" text-anchor="start" x="341.5" y="-126.62" font-family="Helvetica,sans-Serif" font-size="9.00">OwletOnboarding.tsx</text>
</a>
</g>
</g>
<!-- src/apps/web/App.tsx&#45;&gt;src/apps/web/components/OwletOnboarding.tsx -->
<g id="edge29" class="edge">
<title>src/apps/web/App.tsx&#45;&gt;src/apps/web/components/OwletOnboarding.tsx</title>
<path fill="none" stroke="#000000" stroke-width="2" stroke-opacity="0.200000" d="M261.27,-130C261.27,-130 324.05,-130 324.05,-130"/>
<polygon fill="#000000" fill-opacity="0.200000" stroke="#000000" stroke-width="2" stroke-opacity="0.200000" points="324.05,-132.1 330.05,-130 324.05,-127.9 324.05,-132.1"/>
</g>
<!-- src/apps/web/components/ChatInput.tsx -->
<g id="node30" class="node">
<title>src/apps/web/components/ChatInput.tsx</title>
<g id="a_node30"><a xlink:href="src/apps/web/components/ChatInput.tsx" xlink:title="ChatInput.tsx">
<path fill="#bbfeff" stroke="black" d="M605.33,-59.62C605.33,-59.62 539.92,-59.62 539.92,-59.62 536.71,-59.62 533.5,-56.42 533.5,-53.21 533.5,-53.21 533.5,-46.79 533.5,-46.79 533.5,-43.58 536.71,-40.38 539.92,-40.38 539.92,-40.38 605.33,-40.38 605.33,-40.38 608.54,-40.38 611.75,-43.58 611.75,-46.79 611.75,-46.79 611.75,-53.21 611.75,-53.21 611.75,-56.42 608.54,-59.62 605.33,-59.62"/>
<text xml:space="preserve" text-anchor="start" x="541.5" y="-46.62" font-family="Helvetica,sans-Serif" font-size="9.00">ChatInput.tsx</text>
</a>
</g>
</g>
<!-- src/apps/web/components/OwletOnboarding.tsx&#45;&gt;src/apps/web/components/ChatInput.tsx -->
<g id="edge32" class="edge">
<title>src/apps/web/components/OwletOnboarding.tsx&#45;&gt;src/apps/web/components/ChatInput.tsx</title>
<path fill="none" stroke="#000000" stroke-width="2" stroke-opacity="0.200000" d="M370.5,-120.19C370.5,-98.83 370.5,-50 370.5,-50 370.5,-50 524.15,-50 524.15,-50"/>
<polygon fill="#000000" fill-opacity="0.200000" stroke="#000000" stroke-width="2" stroke-opacity="0.200000" points="524.15,-52.1 530.15,-50 524.15,-47.9 524.15,-52.1"/>
</g>
<!-- src/apps/web/components/GithubConnectCard.tsx -->
<g id="node31" class="node">
<title>src/apps/web/components/GithubConnectCard.tsx</title>
<g id="a_node31"><a xlink:href="src/apps/web/components/GithubConnectCard.tsx" xlink:title="GithubConnectCard.tsx">
<path fill="#bbfeff" stroke="black" d="M627.08,-91.62C627.08,-91.62 518.17,-91.62 518.17,-91.62 514.96,-91.62 511.75,-88.42 511.75,-85.21 511.75,-85.21 511.75,-78.79 511.75,-78.79 511.75,-75.58 514.96,-72.38 518.17,-72.38 518.17,-72.38 627.08,-72.38 627.08,-72.38 630.29,-72.38 633.5,-75.58 633.5,-78.79 633.5,-78.79 633.5,-85.21 633.5,-85.21 633.5,-88.42 630.29,-91.62 627.08,-91.62"/>
<text xml:space="preserve" text-anchor="start" x="519.75" y="-78.62" font-family="Helvetica,sans-Serif" font-size="9.00">GithubConnectCard.tsx</text>
</a>
</g>
</g>
<!-- src/apps/web/components/OwletOnboarding.tsx&#45;&gt;src/apps/web/components/GithubConnectCard.tsx -->
<g id="edge33" class="edge">
<title>src/apps/web/components/OwletOnboarding.tsx&#45;&gt;src/apps/web/components/GithubConnectCard.tsx</title>
<path fill="none" stroke="#000000" stroke-width="2" stroke-opacity="0.200000" d="M407.5,-120.29C407.5,-106.26 407.5,-82 407.5,-82 407.5,-82 502.58,-82 502.58,-82"/>
<polygon fill="#000000" fill-opacity="0.200000" stroke="#000000" stroke-width="2" stroke-opacity="0.200000" points="502.58,-84.1 508.58,-82 502.58,-79.9 502.58,-84.1"/>
</g>
<!-- src/apps/web/components/MicrophonePrompt.tsx -->
<g id="node32" class="node">
<title>src/apps/web/components/MicrophonePrompt.tsx</title>
<g id="a_node32"><a xlink:href="src/apps/web/components/MicrophonePrompt.tsx" xlink:title="MicrophonePrompt.tsx">
<path fill="#bbfeff" stroke="black" d="M625.21,-123.62C625.21,-123.62 520.04,-123.62 520.04,-123.62 516.83,-123.62 513.62,-120.42 513.62,-117.21 513.62,-117.21 513.62,-110.79 513.62,-110.79 513.62,-107.58 516.83,-104.38 520.04,-104.38 520.04,-104.38 625.21,-104.38 625.21,-104.38 628.42,-104.38 631.62,-107.58 631.62,-110.79 631.62,-110.79 631.62,-117.21 631.62,-117.21 631.62,-120.42 628.42,-123.62 625.21,-123.62"/>
<text xml:space="preserve" text-anchor="start" x="521.62" y="-110.62" font-family="Helvetica,sans-Serif" font-size="9.00">MicrophonePrompt.tsx</text>
</a>
</g>
</g>
<!-- src/apps/web/components/OwletOnboarding.tsx&#45;&gt;src/apps/web/components/MicrophonePrompt.tsx -->
<g id="edge34" class="edge">
<title>src/apps/web/components/OwletOnboarding.tsx&#45;&gt;src/apps/web/components/MicrophonePrompt.tsx</title>
<path fill="none" stroke="#000000" stroke-width="2" stroke-opacity="0.200000" d="M445.01,-127.88C483.41,-127.88 527.5,-127.88 527.5,-127.88 527.5,-127.88 527.5,-127.5 527.5,-127.5"/>
<polygon fill="#000000" fill-opacity="0.200000" stroke="#000000" stroke-width="2" stroke-opacity="0.200000" points="529.6,-133.11 527.5,-127.11 525.4,-133.11 529.6,-133.11"/>
</g>
<!-- src/apps/web/components/OwletLogo.tsx -->
<g id="node33" class="node">
<title>src/apps/web/components/OwletLogo.tsx</title>
<g id="a_node33"><a xlink:href="src/apps/web/components/OwletLogo.tsx" xlink:title="OwletLogo.tsx">
<path fill="#bbfeff" stroke="black" d="M605.71,-155.62C605.71,-155.62 539.54,-155.62 539.54,-155.62 536.33,-155.62 533.12,-152.42 533.12,-149.21 533.12,-149.21 533.12,-142.79 533.12,-142.79 533.12,-139.58 536.33,-136.38 539.54,-136.38 539.54,-136.38 605.71,-136.38 605.71,-136.38 608.92,-136.38 612.12,-139.58 612.12,-142.79 612.12,-142.79 612.12,-149.21 612.12,-149.21 612.12,-152.42 608.92,-155.62 605.71,-155.62"/>
<text xml:space="preserve" text-anchor="start" x="541.12" y="-142.62" font-family="Helvetica,sans-Serif" font-size="9.00">OwletLogo.tsx</text>
</a>
</g>
</g>
<!-- src/apps/web/components/OwletOnboarding.tsx&#45;&gt;src/apps/web/components/OwletLogo.tsx -->
<g id="edge35" class="edge">
<title>src/apps/web/components/OwletOnboarding.tsx&#45;&gt;src/apps/web/components/OwletLogo.tsx</title>
<path fill="none" stroke="#000000" stroke-width="2" stroke-opacity="0.200000" d="M435.5,-140.1C435.5,-141.68 435.5,-142.81 435.5,-142.81 435.5,-142.81 523.94,-142.81 523.94,-142.81"/>
<polygon fill="#000000" fill-opacity="0.200000" stroke="#000000" stroke-width="2" stroke-opacity="0.200000" points="523.94,-144.91 529.94,-142.81 523.94,-140.71 523.94,-144.91"/>
</g>
<!-- src/apps/web/onboardingState.ts -->
<g id="node34" class="node">
<title>src/apps/web/onboardingState.ts</title>
<g id="a_node34"><a xlink:href="src/apps/web/onboardingState.ts" xlink:title="onboardingState.ts">
<path fill="#ddfeff" stroke="black" d="M617.71,-242.62C617.71,-242.62 527.54,-242.62 527.54,-242.62 524.33,-242.62 521.12,-239.42 521.12,-236.21 521.12,-236.21 521.12,-229.79 521.12,-229.79 521.12,-226.58 524.33,-223.38 527.54,-223.38 527.54,-223.38 617.71,-223.38 617.71,-223.38 620.92,-223.38 624.12,-226.58 624.12,-229.79 624.12,-229.79 624.12,-236.21 624.12,-236.21 624.12,-239.42 620.92,-242.62 617.71,-242.62"/>
<text xml:space="preserve" text-anchor="start" x="529.12" y="-229.62" font-family="Helvetica,sans-Serif" font-size="9.00">onboardingState.ts</text>
</a>
</g>
</g>
<!-- src/apps/web/components/OwletOnboarding.tsx&#45;&gt;src/apps/web/onboardingState.ts -->
<g id="edge31" class="edge">
<title>src/apps/web/components/OwletOnboarding.tsx&#45;&gt;src/apps/web/onboardingState.ts</title>
<path fill="none" stroke="#000000" stroke-width="2" stroke-opacity="0.200000" d="M444.97,-132.12C482.26,-132.12 524.5,-132.12 524.5,-132.12 524.5,-132.12 524.5,-213.93 524.5,-213.93"/>
<polygon fill="#000000" fill-opacity="0.200000" stroke="#000000" stroke-width="2" stroke-opacity="0.200000" points="522.4,-213.93 524.5,-219.93 526.6,-213.93 522.4,-213.93"/>
</g>
<!-- src/apps/web/components/UploadCard.tsx -->
<g id="node35" class="node">
<title>src/apps/web/components/UploadCard.tsx</title>
<g id="a_node35"><a xlink:href="src/apps/web/components/UploadCard.tsx" xlink:title="UploadCard.tsx">
<path fill="#bbfeff" stroke="black" d="M608.71,-187.62C608.71,-187.62 536.54,-187.62 536.54,-187.62 533.33,-187.62 530.12,-184.42 530.12,-181.21 530.12,-181.21 530.12,-174.79 530.12,-174.79 530.12,-171.58 533.33,-168.38 536.54,-168.38 536.54,-168.38 608.71,-168.38 608.71,-168.38 611.92,-168.38 615.12,-171.58 615.12,-174.79 615.12,-174.79 615.12,-181.21 615.12,-181.21 615.12,-184.42 611.92,-187.62 608.71,-187.62"/>
<text xml:space="preserve" text-anchor="start" x="538.12" y="-174.62" font-family="Helvetica,sans-Serif" font-size="9.00">UploadCard.tsx</text>
</a>
</g>
</g>
<!-- src/apps/web/components/OwletOnboarding.tsx&#45;&gt;src/apps/web/components/UploadCard.tsx -->
<g id="edge36" class="edge">
<title>src/apps/web/components/OwletOnboarding.tsx&#45;&gt;src/apps/web/components/UploadCard.tsx</title>
<path fill="none" stroke="#000000" stroke-width="2" stroke-opacity="0.200000" d="M425.5,-140.04C425.5,-154.54 425.5,-179.62 425.5,-179.62 425.5,-179.62 520.65,-179.62 520.65,-179.62"/>
<polygon fill="#000000" fill-opacity="0.200000" stroke="#000000" stroke-width="2" stroke-opacity="0.200000" points="520.65,-181.73 526.65,-179.63 520.65,-177.53 520.65,-181.73"/>
</g>
<!-- src/apps/web/brandAssets.ts -->
<g id="node29" class="node">
<title>src/apps/web/brandAssets.ts</title>
<g id="a_node29"><a xlink:href="src/apps/web/brandAssets.ts" xlink:title="brandAssets.ts">
<path fill="#ddfeff" stroke="black" d="M788.71,-155.62C788.71,-155.62 718.79,-155.62 718.79,-155.62 715.58,-155.62 712.38,-152.42 712.38,-149.21 712.38,-149.21 712.38,-142.79 712.38,-142.79 712.38,-139.58 715.58,-136.38 718.79,-136.38 718.79,-136.38 788.71,-136.38 788.71,-136.38 791.92,-136.38 795.12,-139.58 795.12,-142.79 795.12,-142.79 795.12,-149.21 795.12,-149.21 795.12,-152.42 791.92,-155.62 788.71,-155.62"/>
<text xml:space="preserve" text-anchor="start" x="720.38" y="-142.62" font-family="Helvetica,sans-Serif" font-size="9.00">brandAssets.ts</text>
</a>
</g>
</g>
<!-- src/apps/web/components/OwletLogo.tsx&#45;&gt;src/apps/web/brandAssets.ts -->
<g id="edge30" class="edge">
<title>src/apps/web/components/OwletLogo.tsx&#45;&gt;src/apps/web/brandAssets.ts</title>
<path fill="none" stroke="#000000" stroke-width="2" stroke-opacity="0.200000" d="M612.37,-146C612.37,-146 702.86,-146 702.86,-146"/>
<polygon fill="#000000" fill-opacity="0.200000" stroke="#000000" stroke-width="2" stroke-opacity="0.200000" points="702.86,-148.1 708.86,-146 702.86,-143.9 702.86,-148.1"/>
</g>
<!-- src/apps/web/main.tsx -->
<g id="node36" class="node">
<title>src/apps/web/main.tsx</title>
<g id="a_node36"><a xlink:href="src/apps/web/main.tsx" xlink:title="main.tsx">
<path fill="#bbfeff" stroke="black" d="M112.46,-155.62C112.46,-155.62 70.29,-155.62 70.29,-155.62 67.08,-155.62 63.88,-152.42 63.88,-149.21 63.88,-149.21 63.88,-142.79 63.88,-142.79 63.88,-139.58 67.08,-136.38 70.29,-136.38 70.29,-136.38 112.46,-136.38 112.46,-136.38 115.67,-136.38 118.88,-139.58 118.88,-142.79 118.88,-142.79 118.88,-149.21 118.88,-149.21 118.88,-152.42 115.67,-155.62 112.46,-155.62"/>
<text xml:space="preserve" text-anchor="start" x="71.88" y="-142.62" font-family="Helvetica,sans-Serif" font-size="9.00">main.tsx</text>
</a>
</g>
</g>
<!-- src/apps/web/main.tsx&#45;&gt;src/apps/web/App.tsx -->
<g id="edge37" class="edge">
<title>src/apps/web/main.tsx&#45;&gt;src/apps/web/App.tsx</title>
<path fill="none" stroke="#000000" stroke-width="2" stroke-opacity="0.200000" d="M119.28,-146C158.32,-146 224.5,-146 224.5,-146 224.5,-146 224.5,-145.39 224.5,-145.39"/>
<polygon fill="#000000" fill-opacity="0.200000" stroke="#000000" stroke-width="2" stroke-opacity="0.200000" points="226.6,-148.89 224.5,-142.89 222.4,-148.89 226.6,-148.89"/>
</g>
<!-- src/apps/web/styles.css -->
<g id="node37" class="node">
<title>src/apps/web/styles.css</title>
<g id="a_node37"><a xlink:href="src/apps/web/styles.css" xlink:title="styles.css">
<path fill="#ffffcc" stroke="black" d="M256.83,-171.62C256.83,-171.62 210.92,-171.62 210.92,-171.62 207.71,-171.62 204.5,-168.42 204.5,-165.21 204.5,-165.21 204.5,-158.79 204.5,-158.79 204.5,-155.58 207.71,-152.38 210.92,-152.38 210.92,-152.38 256.83,-152.38 256.83,-152.38 260.04,-152.38 263.25,-155.58 263.25,-158.79 263.25,-158.79 263.25,-165.21 263.25,-165.21 263.25,-168.42 260.04,-171.62 256.83,-171.62"/>
<text xml:space="preserve" text-anchor="start" x="212.5" y="-158.62" font-family="Helvetica,sans-Serif" font-size="9.00">styles.css</text>
</a>
</g>
</g>
<!-- src/apps/web/main.tsx&#45;&gt;src/apps/web/styles.css -->
<g id="edge38" class="edge">
<title>src/apps/web/main.tsx&#45;&gt;src/apps/web/styles.css</title>
<path fill="none" stroke="#000000" stroke-width="2" stroke-opacity="0.200000" d="M119.09,-149.19C162.72,-149.19 242.5,-149.19 242.5,-149.19 242.5,-149.19 242.5,-149.46 242.5,-149.46"/>
<polygon fill="#000000" fill-opacity="0.200000" stroke="#000000" stroke-width="2" stroke-opacity="0.200000" points="240.4,-142.88 242.5,-148.88 244.6,-142.88 240.4,-142.88"/>
</g>
<!-- src/core/agent/events.ts -->
<g id="node38" class="node">
<title>src/core/agent/events.ts</title>
<g id="a_node38"><a xlink:href="src/core/agent/events.ts" xlink:title="events.ts">
<path fill="#ccffcc" stroke="black" d="M594.83,-1143.62C594.83,-1143.62 550.42,-1143.62 550.42,-1143.62 547.21,-1143.62 544,-1140.42 544,-1137.21 544,-1137.21 544,-1130.79 544,-1130.79 544,-1127.58 547.21,-1124.38 550.42,-1124.38 550.42,-1124.38 594.83,-1124.38 594.83,-1124.38 598.04,-1124.38 601.25,-1127.58 601.25,-1130.79 601.25,-1130.79 601.25,-1137.21 601.25,-1137.21 601.25,-1140.42 598.04,-1143.62 594.83,-1143.62"/>
<text xml:space="preserve" text-anchor="start" x="552" y="-1130.62" font-family="Helvetica,sans-Serif" font-size="9.00">events.ts</text>
</a>
</g>
</g>
<!-- src/core/auth/OAuthFlow.interface.ts -->
<g id="node39" class="node">
<title>src/core/auth/OAuthFlow.interface.ts</title>
<g id="a_node39"><a xlink:href="src/core/auth/OAuthFlow.interface.ts" xlink:title="OAuthFlow.interface.ts">
<path fill="#ccffcc" stroke="black" d="M625.21,-1206.62C625.21,-1206.62 520.04,-1206.62 520.04,-1206.62 516.83,-1206.62 513.62,-1203.42 513.62,-1200.21 513.62,-1200.21 513.62,-1193.79 513.62,-1193.79 513.62,-1190.58 516.83,-1187.38 520.04,-1187.38 520.04,-1187.38 625.21,-1187.38 625.21,-1187.38 628.42,-1187.38 631.62,-1190.58 631.62,-1193.79 631.62,-1193.79 631.62,-1200.21 631.62,-1200.21 631.62,-1203.42 628.42,-1206.62 625.21,-1206.62"/>
<text xml:space="preserve" text-anchor="start" x="521.62" y="-1193.62" font-family="Helvetica,sans-Serif" font-size="9.00">OAuthFlow.interface.ts</text>
</a>
</g>
</g>
<!-- src/core/auth/TokenStore.interface.ts -->
<g id="node40" class="node">
<title>src/core/auth/TokenStore.interface.ts</title>
<g id="a_node40"><a xlink:href="src/core/auth/TokenStore.interface.ts" xlink:title="TokenStore.interface.ts">
<path fill="#ccffcc" stroke="black" d="M625.96,-1238.62C625.96,-1238.62 519.29,-1238.62 519.29,-1238.62 516.08,-1238.62 512.88,-1235.42 512.88,-1232.21 512.88,-1232.21 512.88,-1225.79 512.88,-1225.79 512.88,-1222.58 516.08,-1219.38 519.29,-1219.38 519.29,-1219.38 625.96,-1219.38 625.96,-1219.38 629.17,-1219.38 632.38,-1222.58 632.38,-1225.79 632.38,-1225.79 632.38,-1232.21 632.38,-1232.21 632.38,-1235.42 629.17,-1238.62 625.96,-1238.62"/>
<text xml:space="preserve" text-anchor="start" x="520.88" y="-1225.62" font-family="Helvetica,sans-Serif" font-size="9.00">TokenStore.interface.ts</text>
</a>
</g>
</g>
<!-- src/core/config/AgentConfigStore.interface.ts -->
<g id="node41" class="node">
<title>src/core/config/AgentConfigStore.interface.ts</title>
<g id="a_node41"><a xlink:href="src/core/config/AgentConfigStore.interface.ts" xlink:title="AgentConfigStore.interface.ts">
<path fill="#ccffcc" stroke="black" d="M641.33,-1333.62C641.33,-1333.62 503.92,-1333.62 503.92,-1333.62 500.71,-1333.62 497.5,-1330.42 497.5,-1327.21 497.5,-1327.21 497.5,-1320.79 497.5,-1320.79 497.5,-1317.58 500.71,-1314.38 503.92,-1314.38 503.92,-1314.38 641.33,-1314.38 641.33,-1314.38 644.54,-1314.38 647.75,-1317.58 647.75,-1320.79 647.75,-1320.79 647.75,-1327.21 647.75,-1327.21 647.75,-1330.42 644.54,-1333.62 641.33,-1333.62"/>
<text xml:space="preserve" text-anchor="start" x="505.5" y="-1320.62" font-family="Helvetica,sans-Serif" font-size="9.00">AgentConfigStore.interface.ts</text>
</a>
</g>
</g>
<!-- src/core/conversations/ConversationRecord.interface.ts -->
<g id="node43" class="node">
<title>src/core/conversations/ConversationRecord.interface.ts</title>
<g id="a_node43"><a xlink:href="src/core/conversations/ConversationRecord.interface.ts" xlink:title="ConversationRecord.interface.ts">
<path fill="#ccffcc" stroke="black" d="M646.21,-1428.62C646.21,-1428.62 499.04,-1428.62 499.04,-1428.62 495.83,-1428.62 492.62,-1425.42 492.62,-1422.21 492.62,-1422.21 492.62,-1415.79 492.62,-1415.79 492.62,-1412.58 495.83,-1409.38 499.04,-1409.38 499.04,-1409.38 646.21,-1409.38 646.21,-1409.38 649.42,-1409.38 652.62,-1412.58 652.62,-1415.79 652.62,-1415.79 652.62,-1422.21 652.62,-1422.21 652.62,-1425.42 649.42,-1428.62 646.21,-1428.62"/>
<text xml:space="preserve" text-anchor="start" x="500.62" y="-1415.62" font-family="Helvetica,sans-Serif" font-size="9.00">ConversationRecord.interface.ts</text>
</a>
</g>
</g>
<!-- src/core/conversations/ConversationRuntime.interface.ts -->
<g id="node44" class="node">
<title>src/core/conversations/ConversationRuntime.interface.ts</title>
<g id="a_node44"><a xlink:href="src/core/conversations/ConversationRuntime.interface.ts" xlink:title="ConversationRuntime.interface.ts">
<path fill="#ccffcc" stroke="black" d="M649.58,-1460.62C649.58,-1460.62 495.67,-1460.62 495.67,-1460.62 492.46,-1460.62 489.25,-1457.42 489.25,-1454.21 489.25,-1454.21 489.25,-1447.79 489.25,-1447.79 489.25,-1444.58 492.46,-1441.38 495.67,-1441.38 495.67,-1441.38 649.58,-1441.38 649.58,-1441.38 652.79,-1441.38 656,-1444.58 656,-1447.79 656,-1447.79 656,-1454.21 656,-1454.21 656,-1457.42 652.79,-1460.62 649.58,-1460.62"/>
<text xml:space="preserve" text-anchor="start" x="497.25" y="-1447.62" font-family="Helvetica,sans-Serif" font-size="9.00">ConversationRuntime.interface.ts</text>
</a>
</g>
</g>
<!-- src/core/conversations/ConversationStore.interface.ts -->
<g id="node45" class="node">
<title>src/core/conversations/ConversationStore.interface.ts</title>
<g id="a_node45"><a xlink:href="src/core/conversations/ConversationStore.interface.ts" xlink:title="ConversationStore.interface.ts">
<path fill="#ccffcc" stroke="black" d="M642.46,-1492.62C642.46,-1492.62 502.79,-1492.62 502.79,-1492.62 499.58,-1492.62 496.38,-1489.42 496.38,-1486.21 496.38,-1486.21 496.38,-1479.79 496.38,-1479.79 496.38,-1476.58 499.58,-1473.38 502.79,-1473.38 502.79,-1473.38 642.46,-1473.38 642.46,-1473.38 645.67,-1473.38 648.88,-1476.58 648.88,-1479.79 648.88,-1479.79 648.88,-1486.21 648.88,-1486.21 648.88,-1489.42 645.67,-1492.62 642.46,-1492.62"/>
<text xml:space="preserve" text-anchor="start" x="504.38" y="-1479.62" font-family="Helvetica,sans-Serif" font-size="9.00">ConversationStore.interface.ts</text>
</a>
</g>
</g>
<!-- src/core/memory/AgentMemory.interface.ts -->
<g id="node46" class="node">
<title>src/core/memory/AgentMemory.interface.ts</title>
<g id="a_node46"><a xlink:href="src/core/memory/AgentMemory.interface.ts" xlink:title="AgentMemory.interface.ts">
<path fill="#ccffcc" stroke="black" d="M631.96,-1555.62C631.96,-1555.62 513.29,-1555.62 513.29,-1555.62 510.08,-1555.62 506.88,-1552.42 506.88,-1549.21 506.88,-1549.21 506.88,-1542.79 506.88,-1542.79 506.88,-1539.58 510.08,-1536.38 513.29,-1536.38 513.29,-1536.38 631.96,-1536.38 631.96,-1536.38 635.17,-1536.38 638.38,-1539.58 638.38,-1542.79 638.38,-1542.79 638.38,-1549.21 638.38,-1549.21 638.38,-1552.42 635.17,-1555.62 631.96,-1555.62"/>
<text xml:space="preserve" text-anchor="start" x="514.88" y="-1542.62" font-family="Helvetica,sans-Serif" font-size="9.00">AgentMemory.interface.ts</text>
</a>
</g>
</g>
<!-- src/core/model/ModelClient.interface.ts -->
<g id="node47" class="node">
<title>src/core/model/ModelClient.interface.ts</title>
<g id="a_node47"><a xlink:href="src/core/model/ModelClient.interface.ts" xlink:title="ModelClient.interface.ts">
<path fill="#ccffcc" stroke="black" d="M627.08,-1618.62C627.08,-1618.62 518.17,-1618.62 518.17,-1618.62 514.96,-1618.62 511.75,-1615.42 511.75,-1612.21 511.75,-1612.21 511.75,-1605.79 511.75,-1605.79 511.75,-1602.58 514.96,-1599.38 518.17,-1599.38 518.17,-1599.38 627.08,-1599.38 627.08,-1599.38 630.29,-1599.38 633.5,-1602.58 633.5,-1605.79 633.5,-1605.79 633.5,-1612.21 633.5,-1612.21 633.5,-1615.42 630.29,-1618.62 627.08,-1618.62"/>
<text xml:space="preserve" text-anchor="start" x="519.75" y="-1605.62" font-family="Helvetica,sans-Serif" font-size="9.00">ModelClient.interface.ts</text>
</a>
</g>
</g>
<!-- src/core/settings/ResponseSettings.interface.ts -->
<g id="node48" class="node">
<title>src/core/settings/ResponseSettings.interface.ts</title>
<g id="a_node48"><a xlink:href="src/core/settings/ResponseSettings.interface.ts" xlink:title="ResponseSettings.interface.ts">
<path fill="#ccffcc" stroke="black" d="M641.33,-1681.62C641.33,-1681.62 503.92,-1681.62 503.92,-1681.62 500.71,-1681.62 497.5,-1678.42 497.5,-1675.21 497.5,-1675.21 497.5,-1668.79 497.5,-1668.79 497.5,-1665.58 500.71,-1662.38 503.92,-1662.38 503.92,-1662.38 641.33,-1662.38 641.33,-1662.38 644.54,-1662.38 647.75,-1665.58 647.75,-1668.79 647.75,-1668.79 647.75,-1675.21 647.75,-1675.21 647.75,-1678.42 644.54,-1681.62 641.33,-1681.62"/>
<text xml:space="preserve" text-anchor="start" x="505.5" y="-1668.62" font-family="Helvetica,sans-Serif" font-size="9.00">ResponseSettings.interface.ts</text>
</a>
</g>
</g>
<!-- src/core/tools/Tool.interface.ts -->
<g id="node49" class="node">
<title>src/core/tools/Tool.interface.ts</title>
<g id="a_node49"><a xlink:href="src/core/tools/Tool.interface.ts" xlink:title="Tool.interface.ts">
<path fill="#ccffcc" stroke="black" d="M609.46,-1776.62C609.46,-1776.62 535.79,-1776.62 535.79,-1776.62 532.58,-1776.62 529.38,-1773.42 529.38,-1770.21 529.38,-1770.21 529.38,-1763.79 529.38,-1763.79 529.38,-1760.58 532.58,-1757.38 535.79,-1757.38 535.79,-1757.38 609.46,-1757.38 609.46,-1757.38 612.67,-1757.38 615.88,-1760.58 615.88,-1763.79 615.88,-1763.79 615.88,-1770.21 615.88,-1770.21 615.88,-1773.42 612.67,-1776.62 609.46,-1776.62"/>
<text xml:space="preserve" text-anchor="start" x="537.38" y="-1763.62" font-family="Helvetica,sans-Serif" font-size="9.00">Tool.interface.ts</text>
</a>
</g>
</g>
<!-- src/core/tools/ToolRuntime.interface.ts -->
<g id="node50" class="node">
<title>src/core/tools/ToolRuntime.interface.ts</title>
<g id="a_node50"><a xlink:href="src/core/tools/ToolRuntime.interface.ts" xlink:title="ToolRuntime.interface.ts">
<path fill="#ccffcc" stroke="black" d="M628.58,-1808.62C628.58,-1808.62 516.67,-1808.62 516.67,-1808.62 513.46,-1808.62 510.25,-1805.42 510.25,-1802.21 510.25,-1802.21 510.25,-1795.79 510.25,-1795.79 510.25,-1792.58 513.46,-1789.38 516.67,-1789.38 516.67,-1789.38 628.58,-1789.38 628.58,-1789.38 631.79,-1789.38 635,-1792.58 635,-1795.79 635,-1795.79 635,-1802.21 635,-1802.21 635,-1805.42 631.79,-1808.62 628.58,-1808.62"/>
<text xml:space="preserve" text-anchor="start" x="518.25" y="-1795.62" font-family="Helvetica,sans-Serif" font-size="9.00">ToolRuntime.interface.ts</text>
</a>
</g>
</g>
</g>
</svg>
